M48
;Layer_Color=9474304
;FILE_FORMAT=4:4
METRIC,LZ
;TYPE=PLATED
T01F00S00C0.2500
T02F00S00C0.3000
T03F00S00C0.4000
T04F00S00C0.5000
T05F00S00C0.5500
T06F00S00C1.0000
T07F00S00C1.0200
%
T01
X00959Y00566
X00973
T02
X00959Y00552
X00973
X0098Y00559
Y00573
X00973Y0058
X00959
X00966Y00573
X00952
Y00559
X00966
X0052324Y0081345
X0051624Y0080645
Y0082045
X0050224
X0050924Y0082745
Y0081345
X0050224Y0080645
X0049524Y0081345
Y0082745
X0050224Y0083445
X0051624
X0052324Y0082745
X0089659Y0116961
X0091059
X0090359Y0117661
X0091759
Y0119061
X0091059Y0118361
X0090359Y0119061
X0088959
X0089659Y0118361
X0088959Y0117661
X0089659Y0119761
X0091059
T03
X0084582Y0062865
X0090424Y0061595
X0087503Y0067564
X005969Y0072644
X0057785Y0060198
X005588Y0088773
X005715Y0090297
X006892Y0110531
X0079375Y0108966
X0080899Y0112141
X0079756Y0115062
X0080421Y0117191
X008509Y0114681
X0085725Y0112903
X0096647Y0113411
Y0111506
X0097663Y0118237
X010287Y0107569
X0104394Y0124206
X0098425Y0123571
T04
X0068326Y011811
X0080264Y0122809
T05
X006477Y006731
X0107442Y0118364
T06
X008001Y00508
X007747
X007493
X0045339Y0101092
Y0103632
Y0106172
X010546Y0126
X0108
X011054
T07
X0112268Y0073787
Y0076327
Y0078867
X0067691Y0050673
X0065151
X00583052Y00508757
X00557652
X00468452
X00443052
X0044069Y0058166
Y0060706
Y0066929
Y0069469
X0045339Y0114554
Y0117094
X008611Y009381
Y009127
Y008873
Y008619
X010389
Y008873
Y009127
Y009381
Y009635
X0112522Y0096647
Y0099187
Y0101727
Y0104267
Y0106807
Y0109347
Y0111887
Y0114427
Y0116967
X0112268Y0086487
Y0083947
Y0081407
X010389Y008365
X0077724Y0125095
X0075184
X0072644
X0066929
X0064389
X0061849
X0056134
X0053594
X0047879
X0045339
M30
