G04*
G04 #@! TF.GenerationSoftware,Altium Limited,Altium Designer,24.1.2 (44)*
G04*
G04 Layer_Color=65535*
%FSLAX44Y44*%
%MOMM*%
G71*
G04*
G04 #@! TF.SameCoordinates,8946270A-CDF1-4B79-A6C7-2A95EA918DB0*
G04*
G04*
G04 #@! TF.FilePolarity,Positive*
G04*
G01*
G75*
%ADD10C,0.2000*%
%ADD11C,0.3000*%
%ADD12C,0.1778*%
%ADD13C,0.2540*%
%ADD14C,0.1270*%
%ADD15C,0.2032*%
%ADD16C,0.2500*%
%ADD17C,0.1500*%
%ADD18C,0.1700*%
%ADD19R,1.2700X2.5400*%
%ADD20R,2.5400X1.2700*%
%ADD21R,2.5400X0.6350*%
%ADD22R,0.6350X2.5400*%
D10*
X728150Y972160D02*
G03*
X728150Y972160I-1000J0D01*
G01*
Y841350D02*
G03*
X728150Y841350I-1000J0D01*
G01*
Y733400D02*
G03*
X728150Y733400I-1000J0D01*
G01*
X652510Y488950D02*
G03*
X652510Y488950I-1000J0D01*
G01*
X423910Y694690D02*
G03*
X423910Y694690I-1000J0D01*
G01*
Y607060D02*
G03*
X423910Y607060I-1000J0D01*
G01*
X670290Y1268730D02*
G03*
X670290Y1268730I-1000J0D01*
G01*
X1141460Y737870D02*
G03*
X1141460Y737870I-1000J0D01*
G01*
X469602Y537267D02*
G03*
X469602Y537267I-1000J0D01*
G01*
X562340Y1268730D02*
G03*
X562340Y1268730I-1000J0D01*
G01*
X479790D02*
G03*
X479790Y1268730I-1000J0D01*
G01*
X436610Y1170940D02*
G03*
X436610Y1170940I-1000J0D01*
G01*
X778240Y1268730D02*
G03*
X778240Y1268730I-1000J0D01*
G01*
X593362Y1160018D02*
X606780D01*
Y1178052D01*
X593362D02*
X606780D01*
X571780D02*
X585612D01*
X571780Y1160018D02*
X585612D01*
X571780D02*
Y1178052D01*
X526052Y1160018D02*
X539470D01*
Y1178052D01*
X526052D02*
X539470D01*
X504470D02*
X518302D01*
X504470Y1160018D02*
X518302D01*
X504470D02*
Y1178052D01*
X503200Y1113028D02*
Y1131062D01*
Y1113028D02*
X517032D01*
X503200Y1131062D02*
X517032D01*
X524782D02*
X538200D01*
Y1113028D02*
Y1131062D01*
X524782Y1113028D02*
X538200D01*
X699616Y1124884D02*
Y1138302D01*
Y1124884D02*
X717650D01*
Y1138302D01*
Y1146052D02*
Y1159884D01*
X699616Y1146052D02*
Y1159884D01*
X717650D01*
X627888Y1132560D02*
X645922D01*
X627888Y1118728D02*
Y1132560D01*
X645922Y1118728D02*
Y1132560D01*
Y1097560D02*
Y1110978D01*
X627888Y1097560D02*
X645922D01*
X627888D02*
Y1110978D01*
Y1045490D02*
Y1058908D01*
Y1045490D02*
X645922D01*
Y1058908D01*
Y1066658D02*
Y1080490D01*
X627888Y1066658D02*
Y1080490D01*
X645922D01*
X556532Y1002538D02*
X569950D01*
Y1020572D01*
X556532D02*
X569950D01*
X534950D02*
X548782D01*
X534950Y1002538D02*
X548782D01*
X534950D02*
Y1020572D01*
X1061992Y1042764D02*
X1075410D01*
Y1060798D01*
X1061992D02*
X1075410D01*
X1040410D02*
X1054242D01*
X1040410Y1042764D02*
X1054242D01*
X1040410D02*
Y1060798D01*
X706392Y941578D02*
X719810D01*
Y959612D01*
X706392D02*
X719810D01*
X684810D02*
X698642D01*
X684810Y941578D02*
X698642D01*
X684810D02*
Y959612D01*
X996188Y692430D02*
Y705848D01*
Y692430D02*
X1014222D01*
Y705848D01*
Y713598D02*
Y727430D01*
X996188Y713598D02*
Y727430D01*
X1014222D01*
X972312Y714012D02*
Y727430D01*
X954278D02*
X972312D01*
X954278Y714012D02*
Y727430D01*
Y692430D02*
Y706262D01*
X972312Y692430D02*
Y706262D01*
X954278Y692430D02*
X972312D01*
X860070Y691752D02*
Y709786D01*
Y691752D02*
X873902D01*
X860070Y709786D02*
X873902D01*
X881652D02*
X895070D01*
Y691752D02*
Y709786D01*
X881652Y691752D02*
X895070D01*
X705122Y702818D02*
X718540D01*
Y720852D01*
X705122D02*
X718540D01*
X683540D02*
X697372D01*
X683540Y702818D02*
X697372D01*
X683540D02*
Y720852D01*
X590830Y634492D02*
X604248D01*
X590830Y616458D02*
Y634492D01*
Y616458D02*
X604248D01*
X611998D02*
X625830D01*
X611998Y634492D02*
X625830D01*
Y616458D02*
Y634492D01*
X585190Y568198D02*
Y586232D01*
X571358D02*
X585190D01*
X571358Y568198D02*
X585190D01*
X550190D02*
X563608D01*
X550190D02*
Y586232D01*
X563608D01*
X532402Y631698D02*
X545820D01*
Y649732D01*
X532402D02*
X545820D01*
X510820D02*
X524652D01*
X510820Y631698D02*
X524652D01*
X510820D02*
Y649732D01*
X705122Y812038D02*
X718540D01*
Y830072D01*
X705122D02*
X718540D01*
X683540D02*
X697372D01*
X683540Y812038D02*
X697372D01*
X683540D02*
Y830072D01*
X1088670Y518668D02*
Y536702D01*
Y518668D02*
X1102502D01*
X1088670Y536702D02*
X1102502D01*
X1110252D02*
X1123670D01*
Y518668D02*
Y536702D01*
X1110252Y518668D02*
X1123670D01*
X502606Y725962D02*
X500939Y727628D01*
X497607D01*
X495941Y725962D01*
Y724296D01*
X497607Y722630D01*
X500939D01*
X502606Y720964D01*
Y719298D01*
X500939Y717632D01*
X497607D01*
X495941Y719298D01*
X505938Y727628D02*
Y717632D01*
X509270Y720964D01*
X512602Y717632D01*
Y727628D01*
X515934Y725962D02*
X517601Y727628D01*
X520933D01*
X522599Y725962D01*
Y724296D01*
X520933Y722630D01*
X519267D01*
X520933D01*
X522599Y720964D01*
Y719298D01*
X520933Y717632D01*
X517601D01*
X515934Y719298D01*
X1044022Y682521D02*
X1054018D01*
Y689185D01*
X1044022Y699182D02*
Y692517D01*
X1054018D01*
Y699182D01*
X1049020Y692517D02*
Y695850D01*
X1044022Y702514D02*
X1054018D01*
Y707512D01*
X1052352Y709178D01*
X1045688D01*
X1044022Y707512D01*
Y702514D01*
Y722508D02*
X1054018D01*
Y727506D01*
X1052352Y729172D01*
X1045688D01*
X1044022Y727506D01*
Y722508D01*
X1054018Y732504D02*
Y735837D01*
Y734171D01*
X1044022D01*
X1045688Y732504D01*
X1054018Y747499D02*
Y740835D01*
X1047354Y747499D01*
X1045688D01*
X1044022Y745833D01*
Y742501D01*
X1045688Y740835D01*
X625370Y606978D02*
Y596982D01*
X632035D01*
X642032Y606978D02*
X635367D01*
Y596982D01*
X642032D01*
X635367Y601980D02*
X638699D01*
X645364Y606978D02*
Y596982D01*
X650362D01*
X652029Y598648D01*
Y605312D01*
X650362Y606978D01*
X645364D01*
X665358D02*
Y596982D01*
X670356D01*
X672022Y598648D01*
Y605312D01*
X670356Y606978D01*
X665358D01*
X675354Y596982D02*
X678687D01*
X677020D01*
Y606978D01*
X675354Y605312D01*
X690350Y596982D02*
X683685D01*
X690350Y603646D01*
Y605312D01*
X688683Y606978D01*
X685351D01*
X683685Y605312D01*
X914919Y685416D02*
X924915D01*
Y692080D01*
X914919Y702077D02*
Y695413D01*
X924915D01*
Y702077D01*
X919917Y695413D02*
Y698745D01*
X914919Y705409D02*
X924915D01*
Y710408D01*
X923249Y712074D01*
X916585D01*
X914919Y710408D01*
Y705409D01*
X926581Y715406D02*
Y722071D01*
X924915Y725403D02*
X914919D01*
Y730401D01*
X916585Y732067D01*
X919917D01*
X921583Y730401D01*
Y725403D01*
X914919Y735400D02*
X924915D01*
X921583Y738732D01*
X924915Y742064D01*
X914919D01*
X569846Y560821D02*
Y550825D01*
X576510D01*
X586507Y560821D02*
X579843D01*
Y550825D01*
X586507D01*
X579843Y555823D02*
X583175D01*
X589839Y560821D02*
Y550825D01*
X594838D01*
X596504Y552491D01*
Y559155D01*
X594838Y560821D01*
X589839D01*
X599836Y549159D02*
X606501D01*
X609833Y550825D02*
Y560821D01*
X614831D01*
X616497Y559155D01*
Y555823D01*
X614831Y554157D01*
X609833D01*
X619830Y560821D02*
Y550825D01*
X623162Y554157D01*
X626494Y550825D01*
Y560821D01*
X675722Y1034666D02*
X685718D01*
Y1041330D01*
X675722Y1051327D02*
Y1044663D01*
X685718D01*
Y1051327D01*
X680720Y1044663D02*
Y1047995D01*
X675722Y1054659D02*
X685718D01*
Y1059658D01*
X684052Y1061324D01*
X677388D01*
X675722Y1059658D01*
Y1054659D01*
X677388Y1081317D02*
X675722Y1079651D01*
Y1076319D01*
X677388Y1074653D01*
X679054D01*
X680720Y1076319D01*
Y1079651D01*
X682386Y1081317D01*
X684052D01*
X685718Y1079651D01*
Y1076319D01*
X684052Y1074653D01*
X675722Y1084650D02*
X685718D01*
X682386Y1087982D01*
X685718Y1091314D01*
X675722D01*
X651359Y556615D02*
X649693Y558282D01*
X646360D01*
X644694Y556615D01*
Y554949D01*
X646360Y553283D01*
X649693D01*
X651359Y551617D01*
Y549951D01*
X649693Y548285D01*
X646360D01*
X644694Y549951D01*
X654691Y558282D02*
Y548285D01*
X658023Y551617D01*
X661356Y548285D01*
Y558282D01*
X664688Y546618D02*
X671352D01*
X674685Y548285D02*
Y558282D01*
X679683D01*
X681349Y556615D01*
Y553283D01*
X679683Y551617D01*
X674685D01*
X684681Y558282D02*
Y548285D01*
X688014Y551617D01*
X691346Y548285D01*
Y558282D01*
D11*
X852000Y526900D02*
G03*
X852000Y526900I-1000J0D01*
G01*
Y590400D02*
G03*
X852000Y590400I-1000J0D01*
G01*
Y653900D02*
G03*
X852000Y653900I-1000J0D01*
G01*
X945650Y678900D02*
G03*
X945650Y678900I-1000J0D01*
G01*
X1009150D02*
G03*
X1009150Y678900I-1000J0D01*
G01*
X1052000Y603100D02*
G03*
X1052000Y603100I-1000J0D01*
G01*
Y539600D02*
G03*
X1052000Y539600I-1000J0D01*
G01*
D02*
G03*
X1052000Y539600I-1000J0D01*
G01*
X483840Y735450D02*
G03*
X483840Y735450I-1000J0D01*
G01*
D02*
G03*
X483840Y735450I-1000J0D01*
G01*
X547340D02*
G03*
X547340Y735450I-1000J0D01*
G01*
X623140Y778300D02*
G03*
X623140Y778300I-1000J0D01*
G01*
Y841800D02*
G03*
X623140Y841800I-1000J0D01*
G01*
X598140Y935450D02*
G03*
X598140Y935450I-1000J0D01*
G01*
X534640D02*
G03*
X534640Y935450I-1000J0D01*
G01*
X471140D02*
G03*
X471140Y935450I-1000J0D01*
G01*
X1057680Y836500D02*
G03*
X1057680Y836500I-1000J0D01*
G01*
X1107440Y966470D02*
G03*
X1107440Y966470I-1270J0D01*
G01*
X1019590Y1222710D02*
G03*
X1019590Y1222710I-1000J0D01*
G01*
Y1159210D02*
G03*
X1019590Y1159210I-1000J0D01*
G01*
Y1095710D02*
G03*
X1019590Y1095710I-1000J0D01*
G01*
X925940Y1070710D02*
G03*
X925940Y1070710I-1000J0D01*
G01*
X862440D02*
G03*
X862440Y1070710I-1000J0D01*
G01*
X819590Y1146510D02*
G03*
X819590Y1146510I-1000J0D01*
G01*
Y1210010D02*
G03*
X819590Y1210010I-1000J0D01*
G01*
D02*
G03*
X819590Y1210010I-1000J0D01*
G01*
X1028000Y493568D02*
Y654918D01*
X1012032Y477600D02*
X1028000Y493568D01*
X874000Y477600D02*
X1012032D01*
X874000D02*
Y654918D01*
X1028000D01*
X638810Y519430D02*
X689610D01*
Y494030D02*
Y519430D01*
X638810Y494030D02*
X689610D01*
X638810D02*
Y519430D01*
X598158Y758450D02*
Y912450D01*
X420840D02*
X598158D01*
X420840Y774418D02*
Y912450D01*
Y774418D02*
X436808Y758450D01*
X598158D01*
X427990Y707390D02*
X453390D01*
X427990Y656590D02*
Y707390D01*
Y656590D02*
X453390D01*
Y707390D01*
X427990Y619760D02*
X453390D01*
X427990Y568960D02*
Y619760D01*
Y568960D02*
X453390D01*
Y619760D01*
X681990Y1238250D02*
Y1263650D01*
X607060D02*
X681990D01*
X607060Y1238250D02*
X681990D01*
X607060D02*
Y1263650D01*
X847130Y766650D02*
X1050330D01*
Y1033350D01*
X847130D02*
X1050330D01*
X847130Y766650D02*
Y1033350D01*
X841590Y1094692D02*
Y1256042D01*
X857558Y1272010D01*
X995590D01*
Y1094692D02*
Y1272010D01*
X841590Y1094692D02*
X995590D01*
X523240Y1238250D02*
X574040D01*
X523240D02*
Y1263650D01*
X574040D01*
Y1238250D02*
Y1263650D01*
X440690Y1238250D02*
X491490D01*
X440690D02*
Y1263650D01*
X491490D01*
Y1238250D02*
Y1263650D01*
X440690Y1183640D02*
X466090D01*
X440690Y1132840D02*
Y1183640D01*
Y1132840D02*
X466090D01*
Y1183640D01*
X715010Y1238250D02*
Y1263650D01*
Y1238250D02*
X789940D01*
X715010Y1263650D02*
X789940D01*
Y1238250D02*
Y1263650D01*
D12*
X587036Y1162204D02*
X591608D01*
X587036Y1175920D02*
X591608D01*
X519726Y1162204D02*
X524298D01*
X519726Y1175920D02*
X524298D01*
X518456Y1128930D02*
X523028D01*
X518456Y1115214D02*
X523028D01*
X701802Y1140056D02*
Y1144628D01*
X715518Y1140056D02*
Y1144628D01*
X643790Y1112732D02*
Y1117304D01*
X630074Y1112732D02*
Y1117304D01*
Y1060662D02*
Y1065234D01*
X643790Y1060662D02*
Y1065234D01*
X550206Y1004724D02*
X554778D01*
X550206Y1018440D02*
X554778D01*
X1055666Y1044949D02*
X1060238D01*
X1055666Y1058665D02*
X1060238D01*
X700066Y943764D02*
X704638D01*
X700066Y957480D02*
X704638D01*
X998374Y707602D02*
Y712174D01*
X1012090Y707602D02*
Y712174D01*
X970126Y707686D02*
Y712258D01*
X956410Y707686D02*
Y712258D01*
X875326Y707654D02*
X879898D01*
X875326Y693938D02*
X879898D01*
X698796Y705004D02*
X703368D01*
X698796Y718720D02*
X703368D01*
X606002Y632306D02*
X610574D01*
X606002Y618590D02*
X610574D01*
X565362Y570330D02*
X569934D01*
X565362Y584046D02*
X569934D01*
X526076Y633884D02*
X530648D01*
X526076Y647600D02*
X530648D01*
X698796Y814224D02*
X703368D01*
X698796Y827940D02*
X703368D01*
X1103926Y534570D02*
X1108498D01*
X1103926Y520854D02*
X1108498D01*
D13*
X785622Y1164844D02*
X797052D01*
X759968D02*
X771398D01*
X772160Y1123950D02*
X784860D01*
Y1149350D01*
X772160D02*
X784860D01*
X772160Y1123950D02*
Y1149350D01*
X759968Y1108456D02*
Y1164844D01*
X797052Y1108456D02*
Y1164844D01*
X785622Y1108456D02*
X797052D01*
X759968D02*
X771398D01*
X584454Y949198D02*
Y960628D01*
Y974852D02*
Y986282D01*
X543560Y961390D02*
Y974090D01*
Y961390D02*
X568960D01*
Y974090D01*
X543560D02*
X568960D01*
X528066Y986282D02*
X584454D01*
X528066Y949198D02*
X584454D01*
X528066D02*
Y960628D01*
Y974852D02*
Y986282D01*
X1065022Y1166114D02*
X1076452D01*
X1039368D02*
X1050798D01*
X1039368Y1109726D02*
Y1166114D01*
X1076452Y1109726D02*
Y1166114D01*
X1064260Y1125220D02*
Y1150620D01*
X1051560Y1125220D02*
X1064260D01*
X1051560D02*
Y1150620D01*
X1064260D01*
X1065022Y1109726D02*
X1076452D01*
X1039368D02*
X1050798D01*
X787908Y592836D02*
X799338D01*
X813562D02*
X824992D01*
Y649224D01*
X787908Y592836D02*
Y649224D01*
X800100Y608330D02*
Y633730D01*
X812800D01*
Y608330D02*
Y633730D01*
X800100Y608330D02*
X812800D01*
X787908Y649224D02*
X799338D01*
X813562D02*
X824992D01*
X525526Y705612D02*
Y717042D01*
Y679958D02*
Y691388D01*
X566420Y692150D02*
Y704850D01*
X541020D02*
X566420D01*
X541020Y692150D02*
Y704850D01*
Y692150D02*
X566420D01*
X525526Y679958D02*
X581914D01*
X525526Y717042D02*
X581914D01*
Y705612D02*
Y717042D01*
Y679958D02*
Y691388D01*
X1103122Y651764D02*
X1114552D01*
X1077468D02*
X1088898D01*
X1089660Y610870D02*
X1102360D01*
Y636270D01*
X1089660D02*
X1102360D01*
X1089660Y610870D02*
Y636270D01*
X1077468Y595376D02*
Y651764D01*
X1114552Y595376D02*
Y651764D01*
X1103122Y595376D02*
X1114552D01*
X1077468D02*
X1088898D01*
X482603Y706111D02*
X497837D01*
Y698494D01*
X495298Y695955D01*
X490220D01*
X487681Y698494D01*
Y706111D01*
X482603Y690876D02*
Y685798D01*
Y688337D01*
X492759D01*
Y690876D01*
X482603Y678180D02*
X492759D01*
Y670563D01*
X490220Y668024D01*
X482603D01*
Y652789D02*
Y662945D01*
X492759Y652789D01*
X495298D01*
X497837Y655328D01*
Y660406D01*
X495298Y662945D01*
X848106Y1060191D02*
X853184D01*
X850645D01*
Y1044956D01*
X848106D01*
X853184D01*
X860802D02*
Y1060191D01*
X865880Y1055113D01*
X870959Y1060191D01*
Y1044956D01*
X876037Y1060191D02*
Y1047495D01*
X878576Y1044956D01*
X883654D01*
X886194Y1047495D01*
Y1060191D01*
X891272Y1042417D02*
X901429D01*
X906507Y1060191D02*
X911585D01*
X909046D01*
Y1044956D01*
X906507D01*
X911585D01*
X919203D02*
Y1060191D01*
X929360Y1044956D01*
Y1060191D01*
X509274Y565148D02*
Y552452D01*
X511813Y549912D01*
X516892D01*
X519431Y552452D01*
Y565148D01*
X524509D02*
X534666D01*
Y562608D01*
X524509Y552452D01*
Y549912D01*
X737874Y1000758D02*
Y988062D01*
X740413Y985523D01*
X745492D01*
X748031Y988062D01*
Y1000758D01*
X763266D02*
X758187Y998218D01*
X753109Y993140D01*
Y988062D01*
X755648Y985523D01*
X760727D01*
X763266Y988062D01*
Y990601D01*
X760727Y993140D01*
X753109D01*
X734064Y761998D02*
Y749302D01*
X736603Y746762D01*
X741682D01*
X744221Y749302D01*
Y761998D01*
X759456D02*
X749299D01*
Y754380D01*
X754378Y756919D01*
X756917D01*
X759456Y754380D01*
Y749302D01*
X756917Y746762D01*
X751838D01*
X749299Y749302D01*
X734064Y871217D02*
Y858522D01*
X736603Y855983D01*
X741682D01*
X744221Y858522D01*
Y871217D01*
X756917Y855983D02*
Y871217D01*
X749299Y863600D01*
X759456D01*
X835664Y685798D02*
Y673102D01*
X838203Y670563D01*
X843282D01*
X845821Y673102D01*
Y685798D01*
X850899Y683258D02*
X853438Y685798D01*
X858517D01*
X861056Y683258D01*
Y680719D01*
X858517Y678180D01*
X855977D01*
X858517D01*
X861056Y675641D01*
Y673102D01*
X858517Y670563D01*
X853438D01*
X850899Y673102D01*
X419104Y952497D02*
Y939802D01*
X421643Y937262D01*
X426722D01*
X429261Y939802D01*
Y952497D01*
X444496Y937262D02*
X434339D01*
X444496Y947419D01*
Y949958D01*
X441957Y952497D01*
X436878D01*
X434339Y949958D01*
X818642Y1296411D02*
Y1283715D01*
X821181Y1281176D01*
X826260D01*
X828799Y1283715D01*
Y1296411D01*
X833877Y1281176D02*
X838955D01*
X836416D01*
Y1296411D01*
X833877Y1293872D01*
X441449Y1293364D02*
X438909Y1295903D01*
X433831D01*
X431292Y1293364D01*
Y1290825D01*
X433831Y1288286D01*
X438909D01*
X441449Y1285746D01*
Y1283207D01*
X438909Y1280668D01*
X433831D01*
X431292Y1283207D01*
X446527Y1295903D02*
Y1280668D01*
X451605Y1285746D01*
X456684Y1280668D01*
Y1295903D01*
X461762Y1283207D02*
X464301Y1280668D01*
X469380D01*
X471919Y1283207D01*
Y1293364D01*
X469380Y1295903D01*
X464301D01*
X461762Y1293364D01*
Y1290825D01*
X464301Y1288286D01*
X471919D01*
X523999Y1293364D02*
X521460Y1295903D01*
X516381D01*
X513842Y1293364D01*
Y1290825D01*
X516381Y1288286D01*
X521460D01*
X523999Y1285746D01*
Y1283207D01*
X521460Y1280668D01*
X516381D01*
X513842Y1283207D01*
X529077Y1295903D02*
Y1280668D01*
X534155Y1285746D01*
X539234Y1280668D01*
Y1295903D01*
X544312Y1293364D02*
X546851Y1295903D01*
X551930D01*
X554469Y1293364D01*
Y1290825D01*
X551930Y1288286D01*
X554469Y1285746D01*
Y1283207D01*
X551930Y1280668D01*
X546851D01*
X544312Y1283207D01*
Y1285746D01*
X546851Y1288286D01*
X544312Y1290825D01*
Y1293364D01*
X546851Y1288286D02*
X551930D01*
X443989Y1216148D02*
X441450Y1218687D01*
X436371D01*
X433832Y1216148D01*
Y1213609D01*
X436371Y1211069D01*
X441450D01*
X443989Y1208530D01*
Y1205991D01*
X441450Y1203452D01*
X436371D01*
X433832Y1205991D01*
X449067Y1218687D02*
Y1203452D01*
X454145Y1208530D01*
X459224Y1203452D01*
Y1218687D01*
X464302D02*
X474459D01*
Y1216148D01*
X464302Y1205991D01*
Y1203452D01*
X768353Y670558D02*
X765814Y673098D01*
X760736D01*
X758197Y670558D01*
Y668019D01*
X760736Y665480D01*
X765814D01*
X768353Y662941D01*
Y660402D01*
X765814Y657862D01*
X760736D01*
X758197Y660402D01*
X773432Y673098D02*
Y657862D01*
X778510Y662941D01*
X783588Y657862D01*
Y673098D01*
X798823D02*
X793745Y670558D01*
X788667Y665480D01*
Y660402D01*
X791206Y657862D01*
X796284D01*
X798823Y660402D01*
Y662941D01*
X796284Y665480D01*
X788667D01*
X607063Y989328D02*
X604524Y991868D01*
X599446D01*
X596907Y989328D01*
Y986789D01*
X599446Y984250D01*
X604524D01*
X607063Y981711D01*
Y979172D01*
X604524Y976633D01*
X599446D01*
X596907Y979172D01*
X612142Y991868D02*
Y976633D01*
X617220Y981711D01*
X622298Y976633D01*
Y991868D01*
X637533D02*
X627377D01*
Y984250D01*
X632455Y986789D01*
X634994D01*
X637533Y984250D01*
Y979172D01*
X634994Y976633D01*
X629916D01*
X627377Y979172D01*
X1032513Y1184908D02*
X1029974Y1187448D01*
X1024896D01*
X1022357Y1184908D01*
Y1182369D01*
X1024896Y1179830D01*
X1029974D01*
X1032513Y1177291D01*
Y1174752D01*
X1029974Y1172213D01*
X1024896D01*
X1022357Y1174752D01*
X1037592Y1187448D02*
Y1172213D01*
X1042670Y1177291D01*
X1047748Y1172213D01*
Y1187448D01*
X1060444Y1172213D02*
Y1187448D01*
X1052827Y1179830D01*
X1062983D01*
X1088895Y685796D02*
X1086356Y688335D01*
X1081277D01*
X1078738Y685796D01*
Y683257D01*
X1081277Y680717D01*
X1086356D01*
X1088895Y678178D01*
Y675639D01*
X1086356Y673100D01*
X1081277D01*
X1078738Y675639D01*
X1093973Y688335D02*
Y673100D01*
X1099051Y678178D01*
X1104130Y673100D01*
Y688335D01*
X1119365Y673100D02*
X1109208D01*
X1119365Y683257D01*
Y685796D01*
X1116826Y688335D01*
X1111747D01*
X1109208Y685796D01*
X769622Y1196338D02*
X767083Y1198877D01*
X762005D01*
X759466Y1196338D01*
Y1193799D01*
X762005Y1191260D01*
X767083D01*
X769622Y1188721D01*
Y1186182D01*
X767083Y1183643D01*
X762005D01*
X759466Y1186182D01*
X774701Y1198877D02*
Y1183643D01*
X779779Y1188721D01*
X784858Y1183643D01*
Y1198877D01*
X789936Y1183643D02*
X795014D01*
X792475D01*
Y1198877D01*
X789936Y1196338D01*
X683266Y920752D02*
Y935987D01*
X690884D01*
X693423Y933448D01*
Y928370D01*
X690884Y925831D01*
X683266D01*
X688344D02*
X693423Y920752D01*
X698501D02*
X703580D01*
X701040D01*
Y935987D01*
X698501Y933448D01*
X711197D02*
X713736Y935987D01*
X718815D01*
X721354Y933448D01*
Y930909D01*
X718815Y928370D01*
X721354Y925831D01*
Y923292D01*
X718815Y920752D01*
X713736D01*
X711197Y923292D01*
Y925831D01*
X713736Y928370D01*
X711197Y930909D01*
Y933448D01*
X713736Y928370D02*
X718815D01*
X684536Y679453D02*
Y694688D01*
X692154D01*
X694693Y692148D01*
Y687070D01*
X692154Y684531D01*
X684536D01*
X689614D02*
X694693Y679453D01*
X699771D02*
X704850D01*
X702310D01*
Y694688D01*
X699771Y692148D01*
X712467Y694688D02*
X722624D01*
Y692148D01*
X712467Y681992D01*
Y679453D01*
X681996Y791212D02*
Y806448D01*
X689614D01*
X692153Y803908D01*
Y798830D01*
X689614Y796291D01*
X681996D01*
X687075D02*
X692153Y791212D01*
X697231D02*
X702310D01*
X699770D01*
Y806448D01*
X697231Y803908D01*
X720084Y806448D02*
X715005Y803908D01*
X709927Y798830D01*
Y793752D01*
X712466Y791212D01*
X717545D01*
X720084Y793752D01*
Y796291D01*
X717545Y798830D01*
X709927D01*
X504196Y1141732D02*
Y1156967D01*
X511814D01*
X514353Y1154428D01*
Y1149350D01*
X511814Y1146811D01*
X504196D01*
X509274D02*
X514353Y1141732D01*
X519431D02*
X524510D01*
X521970D01*
Y1156967D01*
X519431Y1154428D01*
X542284Y1156967D02*
X532127D01*
Y1149350D01*
X537206Y1151889D01*
X539745D01*
X542284Y1149350D01*
Y1144272D01*
X539745Y1141732D01*
X534666D01*
X532127Y1144272D01*
X572776Y1141732D02*
Y1156967D01*
X580394D01*
X582933Y1154428D01*
Y1149350D01*
X580394Y1146811D01*
X572776D01*
X577854D02*
X582933Y1141732D01*
X588011D02*
X593090D01*
X590550D01*
Y1156967D01*
X588011Y1154428D01*
X608325Y1141732D02*
Y1156967D01*
X600707Y1149350D01*
X610864D01*
X542296Y1113792D02*
Y1129027D01*
X549914D01*
X552453Y1126488D01*
Y1121410D01*
X549914Y1118871D01*
X542296D01*
X547374D02*
X552453Y1113792D01*
X557531D02*
X562610D01*
X560070D01*
Y1129027D01*
X557531Y1126488D01*
X570227D02*
X572766Y1129027D01*
X577845D01*
X580384Y1126488D01*
Y1123949D01*
X577845Y1121410D01*
X575305D01*
X577845D01*
X580384Y1118871D01*
Y1116332D01*
X577845Y1113792D01*
X572766D01*
X570227Y1116332D01*
X985526Y734062D02*
Y749297D01*
X993144D01*
X995683Y746758D01*
Y741680D01*
X993144Y739141D01*
X985526D01*
X990604D02*
X995683Y734062D01*
X1000761D02*
X1005840D01*
X1003300D01*
Y749297D01*
X1000761Y746758D01*
X1023614Y734062D02*
X1013457D01*
X1023614Y744219D01*
Y746758D01*
X1021075Y749297D01*
X1015996D01*
X1013457Y746758D01*
X631195Y618493D02*
Y633727D01*
X638813D01*
X641352Y631188D01*
Y626110D01*
X638813Y623571D01*
X631195D01*
X636274D02*
X641352Y618493D01*
X646430D02*
X651509D01*
X648970D01*
Y633727D01*
X646430Y631188D01*
X659126Y618493D02*
X664205D01*
X661665D01*
Y633727D01*
X659126Y631188D01*
X820426Y693422D02*
Y708658D01*
X828044D01*
X830583Y706118D01*
Y701040D01*
X828044Y698501D01*
X820426D01*
X825505D02*
X830583Y693422D01*
X835661D02*
X840740D01*
X838200D01*
Y708658D01*
X835661Y706118D01*
X848357D02*
X850896Y708658D01*
X855975D01*
X858514Y706118D01*
Y695962D01*
X855975Y693422D01*
X850896D01*
X848357Y695962D01*
Y706118D01*
X576584Y1008382D02*
Y1023617D01*
X584202D01*
X586741Y1021078D01*
Y1016000D01*
X584202Y1013461D01*
X576584D01*
X581662D02*
X586741Y1008382D01*
X591819Y1010922D02*
X594358Y1008382D01*
X599437D01*
X601976Y1010922D01*
Y1021078D01*
X599437Y1023617D01*
X594358D01*
X591819Y1021078D01*
Y1018539D01*
X594358Y1016000D01*
X601976D01*
X595634Y1106172D02*
Y1121407D01*
X603252D01*
X605791Y1118868D01*
Y1113790D01*
X603252Y1111251D01*
X595634D01*
X600713D02*
X605791Y1106172D01*
X610869Y1118868D02*
X613408Y1121407D01*
X618487D01*
X621026Y1118868D01*
Y1116329D01*
X618487Y1113790D01*
X621026Y1111251D01*
Y1108712D01*
X618487Y1106172D01*
X613408D01*
X610869Y1108712D01*
Y1111251D01*
X613408Y1113790D01*
X610869Y1116329D01*
Y1118868D01*
X613408Y1113790D02*
X618487D01*
X1049024Y1021083D02*
Y1036318D01*
X1056642D01*
X1059181Y1033778D01*
Y1028700D01*
X1056642Y1026161D01*
X1049024D01*
X1054102D02*
X1059181Y1021083D01*
X1064259Y1036318D02*
X1074416D01*
Y1033778D01*
X1064259Y1023622D01*
Y1021083D01*
X951234Y731523D02*
Y746758D01*
X958852D01*
X961391Y744218D01*
Y739140D01*
X958852Y736601D01*
X951234D01*
X956312D02*
X961391Y731523D01*
X976626Y746758D02*
X971547Y744218D01*
X966469Y739140D01*
Y734062D01*
X969008Y731523D01*
X974087D01*
X976626Y734062D01*
Y736601D01*
X974087Y739140D01*
X966469D01*
X548644Y590552D02*
Y605788D01*
X556262D01*
X558801Y603248D01*
Y598170D01*
X556262Y595631D01*
X548644D01*
X553722D02*
X558801Y590552D01*
X574036Y605788D02*
X563879D01*
Y598170D01*
X568957Y600709D01*
X571497D01*
X574036Y598170D01*
Y593092D01*
X571497Y590552D01*
X566418D01*
X563879Y593092D01*
X600714Y1066803D02*
Y1082038D01*
X608332D01*
X610871Y1079498D01*
Y1074420D01*
X608332Y1071881D01*
X600714D01*
X605793D02*
X610871Y1066803D01*
X623567D02*
Y1082038D01*
X615949Y1074420D01*
X626106D01*
X552454Y632463D02*
Y647698D01*
X560072D01*
X562611Y645158D01*
Y640080D01*
X560072Y637541D01*
X552454D01*
X557533D02*
X562611Y632463D01*
X567689Y645158D02*
X570228Y647698D01*
X575307D01*
X577846Y645158D01*
Y642619D01*
X575307Y640080D01*
X572767D01*
X575307D01*
X577846Y637541D01*
Y635002D01*
X575307Y632463D01*
X570228D01*
X567689Y635002D01*
X1059184Y520703D02*
Y535938D01*
X1066802D01*
X1069341Y533398D01*
Y528320D01*
X1066802Y525781D01*
X1059184D01*
X1064262D02*
X1069341Y520703D01*
X1084576D02*
X1074419D01*
X1084576Y530859D01*
Y533398D01*
X1082037Y535938D01*
X1076958D01*
X1074419Y533398D01*
X698503Y1164593D02*
Y1179827D01*
X706121D01*
X708660Y1177288D01*
Y1172210D01*
X706121Y1169671D01*
X698503D01*
X703582D02*
X708660Y1164593D01*
X713738D02*
X718817D01*
X716278D01*
Y1179827D01*
X713738Y1177288D01*
X596392Y1280414D02*
Y1295649D01*
X604010D01*
X606549Y1293110D01*
Y1288031D01*
X604010Y1285492D01*
X596392D01*
X619245Y1295649D02*
X614166D01*
X611627Y1293110D01*
Y1282953D01*
X614166Y1280414D01*
X619245D01*
X621784Y1282953D01*
Y1293110D01*
X619245Y1295649D01*
X626862D02*
X637019D01*
X631940D01*
Y1280414D01*
X652254D02*
X642097D01*
X652254Y1290571D01*
Y1293110D01*
X649715Y1295649D01*
X644636D01*
X642097Y1293110D01*
X704342Y1280414D02*
Y1295649D01*
X711960D01*
X714499Y1293110D01*
Y1288031D01*
X711960Y1285492D01*
X704342D01*
X727195Y1295649D02*
X722116D01*
X719577Y1293110D01*
Y1282953D01*
X722116Y1280414D01*
X727195D01*
X729734Y1282953D01*
Y1293110D01*
X727195Y1295649D01*
X734812D02*
X744969D01*
X739891D01*
Y1280414D01*
X750047D02*
X755126D01*
X752586D01*
Y1295649D01*
X750047Y1293110D01*
X725424Y551688D02*
Y566923D01*
X733042D01*
X735581Y564384D01*
Y559305D01*
X733042Y556766D01*
X725424D01*
X740659Y564384D02*
X743198Y566923D01*
X748277D01*
X750816Y564384D01*
Y561845D01*
X748277Y559305D01*
X745737D01*
X748277D01*
X750816Y556766D01*
Y554227D01*
X748277Y551688D01*
X743198D01*
X740659Y554227D01*
X431038Y1095756D02*
Y1110991D01*
X438656D01*
X441195Y1108452D01*
Y1103373D01*
X438656Y1100834D01*
X431038D01*
X456430Y1095756D02*
X446273D01*
X456430Y1105913D01*
Y1108452D01*
X453891Y1110991D01*
X448812D01*
X446273Y1108452D01*
X1004573Y1278893D02*
Y1294128D01*
X1012191D01*
X1014730Y1291588D01*
Y1286510D01*
X1012191Y1283971D01*
X1004573D01*
X1019808Y1278893D02*
X1024887D01*
X1022348D01*
Y1294128D01*
X1019808Y1291588D01*
X1092200Y1215893D02*
Y1200658D01*
X1102357D01*
X1117592Y1213354D02*
X1115053Y1215893D01*
X1109974D01*
X1107435Y1213354D01*
Y1203197D01*
X1109974Y1200658D01*
X1115053D01*
X1117592Y1203197D01*
X1122670Y1215893D02*
Y1200658D01*
X1130288D01*
X1132827Y1203197D01*
Y1213354D01*
X1130288Y1215893D01*
X1122670D01*
X1137905Y1200658D02*
X1142984D01*
X1140444D01*
Y1215893D01*
X1137905Y1213354D01*
X1076974Y910587D02*
X1082052D01*
X1079513D01*
Y895352D01*
X1076974D01*
X1082052D01*
X1089669D02*
Y910587D01*
X1094748Y905509D01*
X1099826Y910587D01*
Y895352D01*
X1104904Y910587D02*
Y897891D01*
X1107444Y895352D01*
X1112522D01*
X1115061Y897891D01*
Y910587D01*
X1120140Y892813D02*
X1130296D01*
X1145531Y910587D02*
X1135375D01*
Y895352D01*
X1145531D01*
X1135375Y902970D02*
X1140453D01*
X1150610Y905509D02*
X1160767Y895352D01*
X1155688Y900430D01*
X1160767Y905509D01*
X1150610Y895352D01*
X694693Y581658D02*
X692154Y584198D01*
X687076D01*
X684537Y581658D01*
Y571502D01*
X687076Y568963D01*
X692154D01*
X694693Y571502D01*
X709928Y568963D02*
X699772D01*
X709928Y579119D01*
Y581658D01*
X707389Y584198D01*
X702311D01*
X699772Y581658D01*
X725163Y584198D02*
X715007D01*
Y576580D01*
X720085Y579119D01*
X722624D01*
X725163Y576580D01*
Y571502D01*
X722624Y568963D01*
X717546D01*
X715007Y571502D01*
X693423Y1002028D02*
X690884Y1004567D01*
X685806D01*
X683267Y1002028D01*
Y991872D01*
X685806Y989333D01*
X690884D01*
X693423Y991872D01*
X708658Y989333D02*
X698502D01*
X708658Y999489D01*
Y1002028D01*
X706119Y1004567D01*
X701041D01*
X698502Y1002028D01*
X721354Y989333D02*
Y1004567D01*
X713737Y996950D01*
X723893D01*
X791213Y930908D02*
X788674Y933447D01*
X783596D01*
X781057Y930908D01*
Y920752D01*
X783596Y918213D01*
X788674D01*
X791213Y920752D01*
X806448Y918213D02*
X796292D01*
X806448Y928369D01*
Y930908D01*
X803909Y933447D01*
X798831D01*
X796292Y930908D01*
X811527D02*
X814066Y933447D01*
X819144D01*
X821683Y930908D01*
Y928369D01*
X819144Y925830D01*
X816605D01*
X819144D01*
X821683Y923291D01*
Y920752D01*
X819144Y918213D01*
X814066D01*
X811527Y920752D01*
X795023Y1003298D02*
X792484Y1005837D01*
X787406D01*
X784867Y1003298D01*
Y993142D01*
X787406Y990602D01*
X792484D01*
X795023Y993142D01*
X810258Y990602D02*
X800102D01*
X810258Y1000759D01*
Y1003298D01*
X807719Y1005837D01*
X802641D01*
X800102Y1003298D01*
X825493Y990602D02*
X815337D01*
X825493Y1000759D01*
Y1003298D01*
X822954Y1005837D01*
X817876D01*
X815337Y1003298D01*
X692152Y760728D02*
X689613Y763268D01*
X684535D01*
X681996Y760728D01*
Y750572D01*
X684535Y748033D01*
X689613D01*
X692152Y750572D01*
X707388Y748033D02*
X697231D01*
X707388Y758189D01*
Y760728D01*
X704848Y763268D01*
X699770D01*
X697231Y760728D01*
X712466Y748033D02*
X717544D01*
X715005D01*
Y763268D01*
X712466Y760728D01*
X690883Y869948D02*
X688344Y872487D01*
X683266D01*
X680727Y869948D01*
Y859792D01*
X683266Y857253D01*
X688344D01*
X690883Y859792D01*
X706118Y857253D02*
X695962D01*
X706118Y867409D01*
Y869948D01*
X703579Y872487D01*
X698501D01*
X695962Y869948D01*
X711197D02*
X713736Y872487D01*
X718814D01*
X721353Y869948D01*
Y859792D01*
X718814Y857253D01*
X713736D01*
X711197Y859792D01*
Y869948D01*
X787403Y760728D02*
X784864Y763268D01*
X779785D01*
X777246Y760728D01*
Y750572D01*
X779785Y748033D01*
X784864D01*
X787403Y750572D01*
X792481Y748033D02*
X797560D01*
X795020D01*
Y763268D01*
X792481Y760728D01*
X805177Y750572D02*
X807716Y748033D01*
X812795D01*
X815334Y750572D01*
Y760728D01*
X812795Y763268D01*
X807716D01*
X805177Y760728D01*
Y758189D01*
X807716Y755650D01*
X815334D01*
X784863Y695958D02*
X782324Y698497D01*
X777245D01*
X774706Y695958D01*
Y685802D01*
X777245Y683262D01*
X782324D01*
X784863Y685802D01*
X789941Y683262D02*
X795020D01*
X792480D01*
Y698497D01*
X789941Y695958D01*
X802637D02*
X805176Y698497D01*
X810255D01*
X812794Y695958D01*
Y693419D01*
X810255Y690880D01*
X812794Y688341D01*
Y685802D01*
X810255Y683262D01*
X805176D01*
X802637Y685802D01*
Y688341D01*
X805176Y690880D01*
X802637Y693419D01*
Y695958D01*
X805176Y690880D02*
X810255D01*
X795023Y801368D02*
X792484Y803907D01*
X787405D01*
X784866Y801368D01*
Y791212D01*
X787405Y788672D01*
X792484D01*
X795023Y791212D01*
X800101Y788672D02*
X805180D01*
X802640D01*
Y803907D01*
X800101Y801368D01*
X812797Y803907D02*
X822954D01*
Y801368D01*
X812797Y791212D01*
Y788672D01*
X795023Y873758D02*
X792484Y876298D01*
X787405D01*
X784866Y873758D01*
Y863602D01*
X787405Y861062D01*
X792484D01*
X795023Y863602D01*
X800101Y861062D02*
X805180D01*
X802640D01*
Y876298D01*
X800101Y873758D01*
X822954Y876298D02*
X817876Y873758D01*
X812797Y868680D01*
Y863602D01*
X815336Y861062D01*
X820415D01*
X822954Y863602D01*
Y866141D01*
X820415Y868680D01*
X812797D01*
X514353Y1216658D02*
X511814Y1219197D01*
X506735D01*
X504196Y1216658D01*
Y1206502D01*
X506735Y1203962D01*
X511814D01*
X514353Y1206502D01*
X519431Y1203962D02*
X524510D01*
X521970D01*
Y1219197D01*
X519431Y1216658D01*
X542284Y1219197D02*
X532127D01*
Y1211580D01*
X537206Y1214119D01*
X539745D01*
X542284Y1211580D01*
Y1206502D01*
X539745Y1203962D01*
X534666D01*
X532127Y1206502D01*
X581663Y1216658D02*
X579124Y1219197D01*
X574045D01*
X571506Y1216658D01*
Y1206502D01*
X574045Y1203962D01*
X579124D01*
X581663Y1206502D01*
X586741Y1203962D02*
X591820D01*
X589280D01*
Y1219197D01*
X586741Y1216658D01*
X607055Y1203962D02*
Y1219197D01*
X599437Y1211580D01*
X609594D01*
X551183Y1103628D02*
X548644Y1106168D01*
X543565D01*
X541026Y1103628D01*
Y1093472D01*
X543565Y1090932D01*
X548644D01*
X551183Y1093472D01*
X556261Y1090932D02*
X561340D01*
X558800D01*
Y1106168D01*
X556261Y1103628D01*
X568957D02*
X571496Y1106168D01*
X576575D01*
X579114Y1103628D01*
Y1101089D01*
X576575Y1098550D01*
X574035D01*
X576575D01*
X579114Y1096011D01*
Y1093472D01*
X576575Y1090932D01*
X571496D01*
X568957Y1093472D01*
X831853Y731518D02*
X829314Y734057D01*
X824235D01*
X821696Y731518D01*
Y721362D01*
X824235Y718822D01*
X829314D01*
X831853Y721362D01*
X836931Y718822D02*
X842010D01*
X839470D01*
Y734057D01*
X836931Y731518D01*
X859784Y718822D02*
X849627D01*
X859784Y728979D01*
Y731518D01*
X857245Y734057D01*
X852166D01*
X849627Y731518D01*
X584202Y1056638D02*
X581663Y1059177D01*
X576585D01*
X574045Y1056638D01*
Y1046482D01*
X576585Y1043942D01*
X581663D01*
X584202Y1046482D01*
X589280Y1043942D02*
X594359D01*
X591820D01*
Y1059177D01*
X589280Y1056638D01*
X601976Y1043942D02*
X607055D01*
X604515D01*
Y1059177D01*
X601976Y1056638D01*
X1056643Y1098548D02*
X1054104Y1101087D01*
X1049025D01*
X1046486Y1098548D01*
Y1088392D01*
X1049025Y1085853D01*
X1054104D01*
X1056643Y1088392D01*
X1061721Y1085853D02*
X1066800D01*
X1064260D01*
Y1101087D01*
X1061721Y1098548D01*
X1074417D02*
X1076956Y1101087D01*
X1082035D01*
X1084574Y1098548D01*
Y1088392D01*
X1082035Y1085853D01*
X1076956D01*
X1074417Y1088392D01*
Y1098548D01*
X558801Y668018D02*
X556262Y670557D01*
X551183D01*
X548644Y668018D01*
Y657862D01*
X551183Y655322D01*
X556262D01*
X558801Y657862D01*
X563879D02*
X566418Y655322D01*
X571497D01*
X574036Y657862D01*
Y668018D01*
X571497Y670557D01*
X566418D01*
X563879Y668018D01*
Y665479D01*
X566418Y662940D01*
X574036D01*
X1069341Y557528D02*
X1066802Y560067D01*
X1061723D01*
X1059184Y557528D01*
Y547372D01*
X1061723Y544832D01*
X1066802D01*
X1069341Y547372D01*
X1074419Y557528D02*
X1076958Y560067D01*
X1082037D01*
X1084576Y557528D01*
Y554989D01*
X1082037Y552450D01*
X1084576Y549911D01*
Y547372D01*
X1082037Y544832D01*
X1076958D01*
X1074419Y547372D01*
Y549911D01*
X1076958Y552450D01*
X1074419Y554989D01*
Y557528D01*
X1076958Y552450D02*
X1082037D01*
X735331Y1176018D02*
X732792Y1178558D01*
X727713D01*
X725174Y1176018D01*
Y1165862D01*
X727713Y1163323D01*
X732792D01*
X735331Y1165862D01*
X740409Y1178558D02*
X750566D01*
Y1176018D01*
X740409Y1165862D01*
Y1163323D01*
X716281Y627378D02*
X713742Y629917D01*
X708663D01*
X706124Y627378D01*
Y617222D01*
X708663Y614683D01*
X713742D01*
X716281Y617222D01*
X731516Y629917D02*
X726438Y627378D01*
X721359Y622300D01*
Y617222D01*
X723898Y614683D01*
X728977D01*
X731516Y617222D01*
Y619761D01*
X728977Y622300D01*
X721359D01*
X656591Y732788D02*
X654052Y735328D01*
X648973D01*
X646434Y732788D01*
Y722632D01*
X648973Y720092D01*
X654052D01*
X656591Y722632D01*
X671826Y735328D02*
X661669D01*
Y727710D01*
X666748Y730249D01*
X669287D01*
X671826Y727710D01*
Y722632D01*
X669287Y720092D01*
X664208D01*
X661669Y722632D01*
X744221Y1027428D02*
X741682Y1029967D01*
X736603D01*
X734064Y1027428D01*
Y1017272D01*
X736603Y1014733D01*
X741682D01*
X744221Y1017272D01*
X756917Y1014733D02*
Y1029967D01*
X749299Y1022350D01*
X759456D01*
X716281Y604518D02*
X713742Y607057D01*
X708663D01*
X706124Y604518D01*
Y594362D01*
X708663Y591823D01*
X713742D01*
X716281Y594362D01*
X721359Y604518D02*
X723898Y607057D01*
X728977D01*
X731516Y604518D01*
Y601979D01*
X728977Y599440D01*
X726438D01*
X728977D01*
X731516Y596901D01*
Y594362D01*
X728977Y591823D01*
X723898D01*
X721359Y594362D01*
X623571Y732788D02*
X621032Y735328D01*
X615953D01*
X613414Y732788D01*
Y722632D01*
X615953Y720092D01*
X621032D01*
X623571Y722632D01*
X638806Y720092D02*
X628649D01*
X638806Y730249D01*
Y732788D01*
X636267Y735328D01*
X631188D01*
X628649Y732788D01*
X745490Y1090928D02*
X742951Y1093467D01*
X737872D01*
X735333Y1090928D01*
Y1080772D01*
X737872Y1078232D01*
X742951D01*
X745490Y1080772D01*
X750568Y1078232D02*
X755647D01*
X753108D01*
Y1093467D01*
X750568Y1090928D01*
X483872Y619752D02*
X499108D01*
Y612135D01*
X496568Y609595D01*
X491490D01*
X488951Y612135D01*
Y619752D01*
X483872Y604517D02*
Y599439D01*
Y601978D01*
X494029D01*
Y604517D01*
X483872Y591821D02*
X494029D01*
Y584204D01*
X491490Y581665D01*
X483872D01*
Y576586D02*
Y571508D01*
Y574047D01*
X499108D01*
X496568Y576586D01*
D14*
X656590Y1097280D02*
X666750D01*
X670560Y1099820D02*
Y1132840D01*
X652780D02*
X670560D01*
X652780Y1099820D02*
Y1132840D01*
X655320Y1045210D02*
X665480D01*
X669290Y1047750D02*
Y1080770D01*
X651510D02*
X669290D01*
X651510Y1047750D02*
Y1080770D01*
X743340Y977160D02*
Y978160D01*
X760340Y977160D02*
Y978160D01*
Y947160D02*
Y948160D01*
X743340Y947160D02*
Y948160D01*
Y947160D02*
X760340D01*
X743340Y978160D02*
X760340D01*
X743340Y846350D02*
Y847350D01*
X760340Y846350D02*
Y847350D01*
Y816350D02*
Y817350D01*
X743340Y816350D02*
Y817350D01*
Y816350D02*
X760340D01*
X743340Y847350D02*
X760340D01*
X1019810Y694690D02*
Y727710D01*
X1037590D01*
Y694690D02*
Y727710D01*
X1023620Y692150D02*
X1033780D01*
X934720Y727710D02*
X944880D01*
X930910Y692150D02*
Y725170D01*
Y692150D02*
X948690D01*
Y725170D01*
X743340Y738400D02*
Y739400D01*
X760340Y738400D02*
Y739400D01*
Y708400D02*
Y709400D01*
X743340Y708400D02*
Y709400D01*
Y708400D02*
X760340D01*
X743340Y739400D02*
X760340D01*
X1112520Y953770D02*
Y1182370D01*
Y953770D02*
X1137920D01*
Y1182370D01*
X1112520D02*
X1137920D01*
X1109980Y722630D02*
Y880110D01*
Y722630D02*
X1135380D01*
Y880110D01*
X1109980D02*
X1135380D01*
X590550Y567690D02*
X623570D01*
X590550D02*
Y585470D01*
X623570D01*
X626110Y571500D02*
Y581660D01*
X590550Y596900D02*
Y607060D01*
X593090Y593090D02*
X626110D01*
Y610870D01*
X593090D02*
X626110D01*
X600682Y496627D02*
Y544887D01*
X426692Y496627D02*
X600682D01*
X426692D02*
Y544887D01*
X455902Y532187D02*
X566392D01*
X579092Y544887D01*
X600682D01*
X443202D02*
X455902Y532187D01*
X426692Y544887D02*
X443202D01*
D15*
X1130800Y1225000D02*
Y1284000D01*
X1029200Y1225000D02*
X1130800D01*
X1029200D02*
Y1284000D01*
X1130800D01*
X429390Y985520D02*
Y1087120D01*
Y985520D02*
X488390D01*
Y1087120D01*
X429390D02*
X488390D01*
X723900Y484000D02*
Y543000D01*
X825500D01*
Y484000D02*
Y543000D01*
X723900Y484000D02*
X825500D01*
D16*
X948996Y1050127D02*
X958993D01*
X963991D02*
X973988D01*
X978986Y1042630D02*
X986484Y1050127D01*
X978986Y1057625D01*
D17*
X1145869Y1173166D02*
X1144203Y1171499D01*
Y1168167D01*
X1145869Y1166501D01*
X1147535D01*
X1149202Y1168167D01*
Y1171499D01*
X1150868Y1173166D01*
X1152534D01*
X1154200Y1171499D01*
Y1168167D01*
X1152534Y1166501D01*
X1144203Y1176498D02*
X1154200D01*
Y1181496D01*
X1152534Y1183162D01*
X1145869D01*
X1144203Y1181496D01*
Y1176498D01*
Y1191493D02*
Y1188161D01*
X1145869Y1186495D01*
X1152534D01*
X1154200Y1188161D01*
Y1191493D01*
X1152534Y1193159D01*
X1145869D01*
X1144203Y1191493D01*
X1145869Y1136021D02*
X1144203Y1137687D01*
Y1141019D01*
X1145869Y1142685D01*
X1147535D01*
X1149202Y1141019D01*
Y1139353D01*
Y1141019D01*
X1150868Y1142685D01*
X1152534D01*
X1154200Y1141019D01*
Y1137687D01*
X1152534Y1136021D01*
X1144203Y1146018D02*
X1150868D01*
X1154200Y1149350D01*
X1150868Y1152682D01*
X1144203D01*
X1145869Y1156015D02*
X1144203Y1157681D01*
Y1161013D01*
X1145869Y1162679D01*
X1147535D01*
X1149202Y1161013D01*
Y1159347D01*
Y1161013D01*
X1150868Y1162679D01*
X1152534D01*
X1154200Y1161013D01*
Y1157681D01*
X1152534Y1156015D01*
X1145869Y1113475D02*
X1144203Y1111809D01*
Y1108477D01*
X1145869Y1106811D01*
X1147535D01*
X1149202Y1108477D01*
Y1111809D01*
X1150868Y1113475D01*
X1152534D01*
X1154200Y1111809D01*
Y1108477D01*
X1152534Y1106811D01*
X1145869Y1123472D02*
X1144203Y1121806D01*
Y1118474D01*
X1145869Y1116808D01*
X1152534D01*
X1154200Y1118474D01*
Y1121806D01*
X1152534Y1123472D01*
X1144203Y1126805D02*
X1154200D01*
X1150868D01*
X1144203Y1133469D01*
X1149202Y1128471D01*
X1154200Y1133469D01*
X1145869Y1087202D02*
X1144203Y1085536D01*
Y1082203D01*
X1145869Y1080537D01*
X1147535D01*
X1149202Y1082203D01*
Y1085536D01*
X1150868Y1087202D01*
X1152534D01*
X1154200Y1085536D01*
Y1082203D01*
X1152534Y1080537D01*
X1144203Y1090534D02*
X1154200D01*
Y1095532D01*
X1152534Y1097198D01*
X1145869D01*
X1144203Y1095532D01*
Y1090534D01*
Y1100531D02*
Y1103863D01*
Y1102197D01*
X1154200D01*
Y1100531D01*
Y1103863D01*
X1144203Y1059739D02*
X1154200D01*
Y1064738D01*
X1152534Y1066404D01*
X1145869D01*
X1144203Y1064738D01*
Y1059739D01*
X1145869Y1076401D02*
X1144203Y1074734D01*
Y1071402D01*
X1145869Y1069736D01*
X1152534D01*
X1154200Y1071402D01*
Y1074734D01*
X1152534Y1076401D01*
X1154200Y1028071D02*
X1144203D01*
Y1033069D01*
X1145869Y1034735D01*
X1149202D01*
X1150868Y1033069D01*
Y1028071D01*
Y1031403D02*
X1154200Y1034735D01*
X1145869Y1044732D02*
X1144203Y1043066D01*
Y1039734D01*
X1145869Y1038068D01*
X1147535D01*
X1149202Y1039734D01*
Y1043066D01*
X1150868Y1044732D01*
X1152534D01*
X1154200Y1043066D01*
Y1039734D01*
X1152534Y1038068D01*
X1144203Y1048065D02*
Y1054729D01*
Y1051397D01*
X1154200D01*
X1144599Y1010524D02*
X1142933Y1008858D01*
Y1005526D01*
X1144599Y1003859D01*
X1151264D01*
X1152930Y1005526D01*
Y1008858D01*
X1151264Y1010524D01*
X1144599Y1020521D02*
X1142933Y1018855D01*
Y1015522D01*
X1144599Y1013856D01*
X1146265D01*
X1147932Y1015522D01*
Y1018855D01*
X1149598Y1020521D01*
X1151264D01*
X1152930Y1018855D01*
Y1015522D01*
X1151264Y1013856D01*
X1055699Y940755D02*
X1054033Y939089D01*
Y935757D01*
X1055699Y934091D01*
X1057365D01*
X1059032Y935757D01*
Y939089D01*
X1060698Y940755D01*
X1062364D01*
X1064030Y939089D01*
Y935757D01*
X1062364Y934091D01*
X1055699Y950752D02*
X1054033Y949086D01*
Y945754D01*
X1055699Y944088D01*
X1062364D01*
X1064030Y945754D01*
Y949086D01*
X1062364Y950752D01*
X1054033Y954085D02*
X1064030D01*
Y960749D01*
X1073479Y840425D02*
X1071813Y838759D01*
Y835427D01*
X1073479Y833761D01*
X1075145D01*
X1076812Y835427D01*
Y838759D01*
X1078478Y840425D01*
X1080144D01*
X1081810Y838759D01*
Y835427D01*
X1080144Y833761D01*
X1073479Y850422D02*
X1071813Y848756D01*
Y845424D01*
X1073479Y843758D01*
X1080144D01*
X1081810Y845424D01*
Y848756D01*
X1080144Y850422D01*
X1071813Y853755D02*
X1081810D01*
Y860419D01*
X1055699Y910275D02*
X1054033Y908609D01*
Y905277D01*
X1055699Y903611D01*
X1057365D01*
X1059032Y905277D01*
Y908609D01*
X1060698Y910275D01*
X1062364D01*
X1064030Y908609D01*
Y905277D01*
X1062364Y903611D01*
X1054033Y913608D02*
X1064030D01*
Y918606D01*
X1062364Y920272D01*
X1055699D01*
X1054033Y918606D01*
Y913608D01*
X1064030Y923605D02*
X1057365D01*
X1054033Y926937D01*
X1057365Y930269D01*
X1064030D01*
X1059032D01*
Y923605D01*
X1073479Y809946D02*
X1071813Y808279D01*
Y804947D01*
X1073479Y803281D01*
X1075145D01*
X1076812Y804947D01*
Y808279D01*
X1078478Y809946D01*
X1080144D01*
X1081810Y808279D01*
Y804947D01*
X1080144Y803281D01*
X1071813Y813278D02*
X1081810D01*
Y818276D01*
X1080144Y819942D01*
X1073479D01*
X1071813Y818276D01*
Y813278D01*
X1081810Y823275D02*
X1075145D01*
X1071813Y826607D01*
X1075145Y829939D01*
X1081810D01*
X1076812D01*
Y823275D01*
X1055699Y842651D02*
X1054033Y844317D01*
Y847649D01*
X1055699Y849315D01*
X1057365D01*
X1059032Y847649D01*
Y845983D01*
Y847649D01*
X1060698Y849315D01*
X1062364D01*
X1064030Y847649D01*
Y844317D01*
X1062364Y842651D01*
X1054033Y852648D02*
X1060698D01*
X1064030Y855980D01*
X1060698Y859312D01*
X1054033D01*
X1055699Y862645D02*
X1054033Y864311D01*
Y867643D01*
X1055699Y869309D01*
X1057365D01*
X1059032Y867643D01*
Y865977D01*
Y867643D01*
X1060698Y869309D01*
X1062364D01*
X1064030Y867643D01*
Y864311D01*
X1062364Y862645D01*
X1073479Y739781D02*
X1071813Y741447D01*
Y744779D01*
X1073479Y746445D01*
X1075145D01*
X1076812Y744779D01*
Y743113D01*
Y744779D01*
X1078478Y746445D01*
X1080144D01*
X1081810Y744779D01*
Y741447D01*
X1080144Y739781D01*
X1071813Y749778D02*
X1078478D01*
X1081810Y753110D01*
X1078478Y756442D01*
X1071813D01*
X1073479Y759775D02*
X1071813Y761441D01*
Y764773D01*
X1073479Y766439D01*
X1075145D01*
X1076812Y764773D01*
Y763107D01*
Y764773D01*
X1078478Y766439D01*
X1080144D01*
X1081810Y764773D01*
Y761441D01*
X1080144Y759775D01*
X1055699Y879796D02*
X1054033Y878129D01*
Y874797D01*
X1055699Y873131D01*
X1062364D01*
X1064030Y874797D01*
Y878129D01*
X1062364Y879796D01*
X1059032D01*
Y876463D01*
X1064030Y883128D02*
X1054033D01*
X1064030Y889792D01*
X1054033D01*
Y893125D02*
X1064030D01*
Y898123D01*
X1062364Y899789D01*
X1055699D01*
X1054033Y898123D01*
Y893125D01*
X1073479Y778195D02*
X1071813Y776529D01*
Y773197D01*
X1073479Y771531D01*
X1080144D01*
X1081810Y773197D01*
Y776529D01*
X1080144Y778195D01*
X1076812D01*
Y774863D01*
X1081810Y781528D02*
X1071813D01*
X1081810Y788192D01*
X1071813D01*
Y791525D02*
X1081810D01*
Y796523D01*
X1080144Y798189D01*
X1073479D01*
X1071813Y796523D01*
Y791525D01*
X1077289Y992825D02*
X1075623Y991159D01*
Y987827D01*
X1077289Y986161D01*
X1083954D01*
X1085620Y987827D01*
Y991159D01*
X1083954Y992825D01*
X1080622D01*
Y989493D01*
X1085620Y996158D02*
X1075623D01*
X1085620Y1002822D01*
X1075623D01*
Y1006155D02*
X1085620D01*
Y1011153D01*
X1083954Y1012819D01*
X1077289D01*
X1075623Y1011153D01*
Y1006155D01*
X1076019Y951871D02*
X1074353Y953537D01*
Y956869D01*
X1076019Y958536D01*
X1077685D01*
X1079352Y956869D01*
Y955203D01*
Y956869D01*
X1081018Y958536D01*
X1082684D01*
X1084350Y956869D01*
Y953537D01*
X1082684Y951871D01*
X1074353Y961868D02*
X1081018D01*
X1084350Y965200D01*
X1081018Y968532D01*
X1074353D01*
X1076019Y971865D02*
X1074353Y973531D01*
Y976863D01*
X1076019Y978529D01*
X1077685D01*
X1079352Y976863D01*
Y975197D01*
Y976863D01*
X1081018Y978529D01*
X1082684D01*
X1084350Y976863D01*
Y973531D01*
X1082684Y971865D01*
X418870Y1017993D02*
X415538Y1014660D01*
X412206D01*
X408873Y1017993D01*
Y1022991D02*
Y1029656D01*
Y1026323D01*
X418870D01*
Y1032988D02*
X415538Y1036320D01*
X412206D01*
X408873Y1032988D01*
Y1041318D02*
Y1047983D01*
Y1044651D01*
X418870D01*
X408873Y1051315D02*
X418870Y1057980D01*
X408873D02*
X418870Y1051315D01*
X766369Y480127D02*
X773034D01*
X769702D01*
Y470130D01*
X776366Y480127D02*
X783031Y470130D01*
Y480127D02*
X776366Y470130D01*
X1069899Y1296737D02*
X1076564D01*
X1073232D01*
Y1286740D01*
X1079896Y1296737D02*
X1086561Y1286740D01*
Y1296737D02*
X1079896Y1286740D01*
X739699Y470130D02*
Y480127D01*
X744698D01*
X746364Y478461D01*
Y475128D01*
X744698Y473462D01*
X739699D01*
X743032D02*
X746364Y470130D01*
X749696Y480127D02*
X756361Y470130D01*
Y480127D02*
X749696Y470130D01*
X1096569Y1286740D02*
Y1296737D01*
X1101568D01*
X1103234Y1295071D01*
Y1291738D01*
X1101568Y1290072D01*
X1096569D01*
X1099902D02*
X1103234Y1286740D01*
X1106566Y1296737D02*
X1113231Y1286740D01*
Y1296737D02*
X1106566Y1286740D01*
X418870Y1065023D02*
X408873D01*
Y1070022D01*
X410539Y1071688D01*
X413872D01*
X415538Y1070022D01*
Y1065023D01*
Y1068356D02*
X418870Y1071688D01*
X408873Y1075020D02*
X418870Y1081685D01*
X408873D02*
X418870Y1075020D01*
Y1088349D02*
X415538Y1085017D01*
X412206D01*
X408873Y1088349D01*
Y1093348D02*
X418870Y1100012D01*
X408873D02*
X418870Y1093348D01*
Y1103344D02*
X415538Y1106677D01*
X412206D01*
X408873Y1103344D01*
X492693Y1011724D02*
X501024D01*
X502690Y1013390D01*
Y1016723D01*
X501024Y1018389D01*
X492693D01*
X502690Y1021721D02*
X496026D01*
X492693Y1025053D01*
X496026Y1028385D01*
X502690D01*
X497692D01*
Y1021721D01*
X502690Y1031718D02*
X492693D01*
Y1036716D01*
X494359Y1038382D01*
X497692D01*
X499358Y1036716D01*
Y1031718D01*
Y1035050D02*
X502690Y1038382D01*
X492693Y1041715D02*
Y1048379D01*
Y1045047D01*
X502690D01*
Y1058376D02*
Y1051711D01*
X496026Y1058376D01*
X494359D01*
X492693Y1056710D01*
Y1053378D01*
X494359Y1051711D01*
X412683Y1152531D02*
X422680D01*
Y1157529D01*
X421014Y1159195D01*
X414349D01*
X412683Y1157529D01*
Y1152531D01*
X422680Y1169192D02*
Y1162528D01*
X416016Y1169192D01*
X414349D01*
X412683Y1167526D01*
Y1164194D01*
X414349Y1162528D01*
X412683Y1172525D02*
Y1179189D01*
X414349D01*
X421014Y1172525D01*
X422680D01*
X475621Y1290387D02*
Y1280390D01*
X480619D01*
X482285Y1282056D01*
Y1288721D01*
X480619Y1290387D01*
X475621D01*
X485618Y1288721D02*
X487284Y1290387D01*
X490616D01*
X492282Y1288721D01*
Y1287054D01*
X490616Y1285388D01*
X488950D01*
X490616D01*
X492282Y1283722D01*
Y1282056D01*
X490616Y1280390D01*
X487284D01*
X485618Y1282056D01*
X495615Y1288721D02*
X497281Y1290387D01*
X500613D01*
X502279Y1288721D01*
Y1287054D01*
X500613Y1285388D01*
X498947D01*
X500613D01*
X502279Y1283722D01*
Y1282056D01*
X500613Y1280390D01*
X497281D01*
X495615Y1282056D01*
X560711Y1291657D02*
Y1281660D01*
X565709D01*
X567375Y1283326D01*
Y1289991D01*
X565709Y1291657D01*
X560711D01*
X570708Y1289991D02*
X572374Y1291657D01*
X575706D01*
X577372Y1289991D01*
Y1288324D01*
X575706Y1286658D01*
X574040D01*
X575706D01*
X577372Y1284992D01*
Y1283326D01*
X575706Y1281660D01*
X572374D01*
X570708Y1283326D01*
X587369Y1281660D02*
X580704D01*
X587369Y1288324D01*
Y1289991D01*
X585703Y1291657D01*
X582371D01*
X580704Y1289991D01*
X659771Y1291657D02*
Y1281660D01*
X664769D01*
X666435Y1283326D01*
Y1289991D01*
X664769Y1291657D01*
X659771D01*
X669768Y1289991D02*
X671434Y1291657D01*
X674766D01*
X676432Y1289991D01*
Y1288324D01*
X674766Y1286658D01*
X673100D01*
X674766D01*
X676432Y1284992D01*
Y1283326D01*
X674766Y1281660D01*
X671434D01*
X669768Y1283326D01*
X686429Y1291657D02*
X679764D01*
Y1286658D01*
X683097Y1288324D01*
X684763D01*
X686429Y1286658D01*
Y1283326D01*
X684763Y1281660D01*
X681431D01*
X679764Y1283326D01*
X766451Y1291657D02*
Y1281660D01*
X771449D01*
X773115Y1283326D01*
Y1289991D01*
X771449Y1291657D01*
X766451D01*
X776448Y1289991D02*
X778114Y1291657D01*
X781446D01*
X783112Y1289991D01*
Y1288324D01*
X781446Y1286658D01*
X779780D01*
X781446D01*
X783112Y1284992D01*
Y1283326D01*
X781446Y1281660D01*
X778114D01*
X776448Y1283326D01*
X791443Y1281660D02*
Y1291657D01*
X786444Y1286658D01*
X793109D01*
X829243Y596434D02*
X839240D01*
Y601433D01*
X837574Y603099D01*
X835908D01*
X834242Y601433D01*
Y596434D01*
Y601433D01*
X832576Y603099D01*
X830909D01*
X829243Y601433D01*
Y596434D01*
Y611429D02*
Y608097D01*
X830909Y606431D01*
X837574D01*
X839240Y608097D01*
Y611429D01*
X837574Y613096D01*
X830909D01*
X829243Y611429D01*
Y621426D02*
Y618094D01*
X830909Y616428D01*
X837574D01*
X839240Y618094D01*
Y621426D01*
X837574Y623092D01*
X830909D01*
X829243Y621426D01*
Y626425D02*
Y633089D01*
Y629757D01*
X839240D01*
X830909Y636421D02*
X829243Y638088D01*
Y641420D01*
X830909Y643086D01*
X832576D01*
X834242Y641420D01*
Y639754D01*
Y641420D01*
X835908Y643086D01*
X837574D01*
X839240Y641420D01*
Y638088D01*
X837574Y636421D01*
X539284Y944947D02*
Y934950D01*
X544283D01*
X545949Y936616D01*
Y938282D01*
X544283Y939948D01*
X539284D01*
X544283D01*
X545949Y941615D01*
Y943281D01*
X544283Y944947D01*
X539284D01*
X554279D02*
X550947D01*
X549281Y943281D01*
Y936616D01*
X550947Y934950D01*
X554279D01*
X555946Y936616D01*
Y943281D01*
X554279Y944947D01*
X564276D02*
X560944D01*
X559278Y943281D01*
Y936616D01*
X560944Y934950D01*
X564276D01*
X565942Y936616D01*
Y943281D01*
X564276Y944947D01*
X569274D02*
X575939D01*
X572607D01*
Y934950D01*
X585936D02*
X579271D01*
X585936Y941615D01*
Y943281D01*
X584270Y944947D01*
X580937D01*
X579271Y943281D01*
X1023553Y1111180D02*
X1033550D01*
Y1116179D01*
X1031884Y1117845D01*
X1030218D01*
X1028552Y1116179D01*
Y1111180D01*
Y1116179D01*
X1026886Y1117845D01*
X1025219D01*
X1023553Y1116179D01*
Y1111180D01*
Y1126176D02*
Y1122843D01*
X1025219Y1121177D01*
X1031884D01*
X1033550Y1122843D01*
Y1126176D01*
X1031884Y1127842D01*
X1025219D01*
X1023553Y1126176D01*
Y1136172D02*
Y1132840D01*
X1025219Y1131174D01*
X1031884D01*
X1033550Y1132840D01*
Y1136172D01*
X1031884Y1137838D01*
X1025219D01*
X1023553Y1136172D01*
Y1141171D02*
Y1147835D01*
Y1144503D01*
X1033550D01*
Y1151167D02*
Y1154500D01*
Y1152834D01*
X1023553D01*
X1025219Y1151167D01*
X1120073Y618176D02*
Y611511D01*
X1130070D01*
Y618176D01*
X1125072Y611511D02*
Y614843D01*
X1130070Y621508D02*
X1120073D01*
X1130070Y628172D01*
X1120073D01*
X1121739Y631505D02*
X1120073Y633171D01*
Y636503D01*
X1121739Y638169D01*
X1123406D01*
X1125072Y636503D01*
Y634837D01*
Y636503D01*
X1126738Y638169D01*
X1128404D01*
X1130070Y636503D01*
Y633171D01*
X1128404Y631505D01*
X803843Y1135462D02*
Y1128797D01*
X813840D01*
Y1135462D01*
X808842Y1128797D02*
Y1132129D01*
X813840Y1138794D02*
X803843D01*
X813840Y1145458D01*
X803843D01*
X813840Y1148791D02*
Y1152123D01*
Y1150457D01*
X803843D01*
X805509Y1148791D01*
X538247Y730713D02*
X531583D01*
Y720716D01*
X538247D01*
X531583Y725714D02*
X534915D01*
X541579Y720716D02*
Y730713D01*
X548244Y720716D01*
Y730713D01*
X551576Y719050D02*
X558241D01*
X568237Y720716D02*
X561573D01*
X568237Y727381D01*
Y729047D01*
X566571Y730713D01*
X563239D01*
X561573Y729047D01*
X410688Y607290D02*
X417352D01*
X410688Y694920D02*
X417352D01*
X410688Y580142D02*
X417352D01*
X414020Y583475D02*
Y576810D01*
X410688Y667772D02*
X417352D01*
X414020Y671105D02*
Y664440D01*
D18*
X636948Y1145729D02*
Y1137731D01*
X642280D01*
X650277Y1145729D02*
X644946D01*
Y1137731D01*
X650277D01*
X644946Y1141730D02*
X647612D01*
X652943Y1145729D02*
Y1137731D01*
X656942D01*
X658275Y1139064D01*
Y1144396D01*
X656942Y1145729D01*
X652943D01*
X668938D02*
Y1137731D01*
X672937D01*
X674270Y1139064D01*
Y1144396D01*
X672937Y1145729D01*
X668938D01*
X676936Y1137731D02*
X679601D01*
X678268D01*
Y1145729D01*
X676936Y1144396D01*
X688932Y1137731D02*
X683600D01*
X688932Y1143063D01*
Y1144396D01*
X687599Y1145729D01*
X684933D01*
X683600Y1144396D01*
D19*
X778510Y1136650D02*
D03*
X1057910Y1137905D02*
D03*
X806450Y621030D02*
D03*
X1096010Y623572D02*
D03*
D20*
X556278Y967740D02*
D03*
X553720Y698500D02*
D03*
D21*
X1054600Y1280955D02*
D03*
X1105400D02*
D03*
X800100Y487045D02*
D03*
X749300D02*
D03*
D22*
X432435Y1061720D02*
D03*
Y1010920D02*
D03*
M02*
