G04*
G04 #@! TF.GenerationSoftware,Altium Limited,Altium Designer,24.1.2 (44)*
G04*
G04 Layer_Color=8388736*
%FSLAX44Y44*%
%MOMM*%
G71*
G04*
G04 #@! TF.SameCoordinates,8946270A-CDF1-4B79-A6C7-2A95EA918DB0*
G04*
G04*
G04 #@! TF.FilePolarity,Negative*
G04*
G01*
G75*
%ADD38R,1.4032X1.6032*%
%ADD39R,1.3632X1.6732*%
%ADD40R,1.0032X1.4032*%
%ADD41R,1.6732X1.3632*%
%ADD42R,1.6032X1.4032*%
%ADD43R,1.5032X1.4032*%
%ADD44R,1.4032X1.0032*%
G04:AMPARAMS|DCode=45|XSize=0.8032mm|YSize=1.5532mm|CornerRadius=0.1466mm|HoleSize=0mm|Usage=FLASHONLY|Rotation=270.000|XOffset=0mm|YOffset=0mm|HoleType=Round|Shape=RoundedRectangle|*
%AMROUNDEDRECTD45*
21,1,0.8032,1.2600,0,0,270.0*
21,1,0.5100,1.5532,0,0,270.0*
1,1,0.2932,-0.6300,-0.2550*
1,1,0.2932,-0.6300,0.2550*
1,1,0.2932,0.6300,0.2550*
1,1,0.2932,0.6300,-0.2550*
%
%ADD45ROUNDEDRECTD45*%
%ADD46R,1.1032X1.1032*%
%ADD47R,1.1032X1.7032*%
%ADD48R,1.7032X1.1032*%
%ADD49R,1.1032X1.7032*%
%ADD50R,1.7032X1.1032*%
%ADD51R,1.1032X1.1032*%
%ADD52R,1.4032X1.5032*%
%ADD53C,1.8000*%
G04:AMPARAMS|DCode=54|XSize=2.0032mm|YSize=1.8032mm|CornerRadius=0.5016mm|HoleSize=0mm|Usage=FLASHONLY|Rotation=270.000|XOffset=0mm|YOffset=0mm|HoleType=Round|Shape=RoundedRectangle|*
%AMROUNDEDRECTD54*
21,1,2.0032,0.8000,0,0,270.0*
21,1,1.0000,1.8032,0,0,270.0*
1,1,1.0032,-0.4000,-0.5000*
1,1,1.0032,-0.4000,0.5000*
1,1,1.0032,0.4000,0.5000*
1,1,1.0032,0.4000,-0.5000*
%
%ADD54ROUNDEDRECTD54*%
%ADD55O,1.8032X2.0032*%
%ADD56O,2.0032X1.8032*%
G04:AMPARAMS|DCode=57|XSize=2.0032mm|YSize=1.8032mm|CornerRadius=0.5016mm|HoleSize=0mm|Usage=FLASHONLY|Rotation=0.000|XOffset=0mm|YOffset=0mm|HoleType=Round|Shape=RoundedRectangle|*
%AMROUNDEDRECTD57*
21,1,2.0032,0.8000,0,0,0.0*
21,1,1.0000,1.8032,0,0,0.0*
1,1,1.0032,0.5000,-0.4000*
1,1,1.0032,-0.5000,-0.4000*
1,1,1.0032,-0.5000,0.4000*
1,1,1.0032,0.5000,0.4000*
%
%ADD57ROUNDEDRECTD57*%
%ADD58C,1.3032*%
%ADD59C,1.0032*%
D38*
X598824Y1169062D02*
D03*
X579824D02*
D03*
X531514D02*
D03*
X512514D02*
D03*
X511244Y1122072D02*
D03*
X530244D02*
D03*
X561994Y1011582D02*
D03*
X542994D02*
D03*
X1067454Y1051807D02*
D03*
X1048454D02*
D03*
X711854Y950622D02*
D03*
X692854D02*
D03*
X868114Y700796D02*
D03*
X887114D02*
D03*
X710584Y711862D02*
D03*
X691584D02*
D03*
X598786Y625448D02*
D03*
X617786D02*
D03*
X558146Y577188D02*
D03*
X577146D02*
D03*
X537864Y640742D02*
D03*
X518864D02*
D03*
X710584Y821082D02*
D03*
X691584D02*
D03*
X1096714Y527712D02*
D03*
X1115714D02*
D03*
D39*
X580530Y1192530D02*
D03*
X598030D02*
D03*
X513220D02*
D03*
X530720D02*
D03*
X529450Y1098550D02*
D03*
X511950D02*
D03*
X543700Y1051560D02*
D03*
X561200D02*
D03*
X1066660Y1074420D02*
D03*
X1049160D02*
D03*
X754240Y1041400D02*
D03*
X736740D02*
D03*
X754240Y1064260D02*
D03*
X736740D02*
D03*
X711060Y976630D02*
D03*
X693560D02*
D03*
X808850Y975360D02*
D03*
X791350D02*
D03*
X808850Y947420D02*
D03*
X791350D02*
D03*
X808850Y847090D02*
D03*
X791350D02*
D03*
X808850Y816610D02*
D03*
X791350D02*
D03*
X709790Y844550D02*
D03*
X692290D02*
D03*
X868680Y723409D02*
D03*
X886180D02*
D03*
X808850Y735330D02*
D03*
X791350D02*
D03*
X808850Y709930D02*
D03*
X791350D02*
D03*
X709790Y734475D02*
D03*
X692290D02*
D03*
X741820Y619760D02*
D03*
X759320D02*
D03*
X741820Y595630D02*
D03*
X759320D02*
D03*
X658000Y576580D02*
D03*
X675500D02*
D03*
X519570Y663355D02*
D03*
X537070D02*
D03*
X1096150Y553720D02*
D03*
X1113650D02*
D03*
D40*
X778510Y1171650D02*
D03*
Y1101650D02*
D03*
X1057910Y1172920D02*
D03*
Y1102920D02*
D03*
X806450Y586030D02*
D03*
Y656030D02*
D03*
X1096010Y588570D02*
D03*
Y658570D02*
D03*
D41*
X731520Y1150340D02*
D03*
Y1132840D02*
D03*
X651381Y708520D02*
D03*
Y691020D02*
D03*
X627380Y708520D02*
D03*
Y691020D02*
D03*
D42*
X708660Y1132840D02*
D03*
Y1151840D02*
D03*
X636932Y1105516D02*
D03*
Y1124516D02*
D03*
Y1053446D02*
D03*
Y1072446D02*
D03*
X1005232Y700386D02*
D03*
Y719386D02*
D03*
X963268Y719474D02*
D03*
Y700474D02*
D03*
D43*
X661670Y1105310D02*
D03*
Y1124810D02*
D03*
X660400Y1053240D02*
D03*
Y1072740D02*
D03*
X1028700Y700180D02*
D03*
Y719680D02*
D03*
X939800Y700180D02*
D03*
Y719680D02*
D03*
D44*
X591260Y967740D02*
D03*
X521260D02*
D03*
X518720Y698500D02*
D03*
X588720D02*
D03*
D45*
X763690Y972160D02*
D03*
Y953160D02*
D03*
X739990D02*
D03*
Y962660D02*
D03*
Y972160D02*
D03*
X763690Y841350D02*
D03*
Y822350D02*
D03*
X739990D02*
D03*
Y831850D02*
D03*
Y841350D02*
D03*
X763690Y733400D02*
D03*
Y714400D02*
D03*
X739990D02*
D03*
Y723900D02*
D03*
Y733400D02*
D03*
D46*
X952000Y580000D02*
D03*
X980000D02*
D03*
X966000D02*
D03*
X952000Y552000D02*
D03*
X980000D02*
D03*
X966000D02*
D03*
X952000Y566000D02*
D03*
X980000D02*
D03*
X966000D02*
D03*
X917590Y1169610D02*
D03*
X889590D02*
D03*
X903590D02*
D03*
X917590Y1197610D02*
D03*
X889590D02*
D03*
X903590D02*
D03*
X917590Y1183610D02*
D03*
X889590D02*
D03*
X903590D02*
D03*
D47*
X995450Y666400D02*
D03*
X982750D02*
D03*
X970050D02*
D03*
X957350D02*
D03*
X893850D02*
D03*
X906550D02*
D03*
X919250D02*
D03*
X931950D02*
D03*
X944650D02*
D03*
X1008150D02*
D03*
X861440Y1083210D02*
D03*
X874140D02*
D03*
X886840D02*
D03*
X899540D02*
D03*
X912240D02*
D03*
X975740D02*
D03*
X963040D02*
D03*
X950340D02*
D03*
X937640D02*
D03*
X924940D02*
D03*
D48*
X863500Y501500D02*
D03*
Y514200D02*
D03*
Y552300D02*
D03*
Y565000D02*
D03*
Y577700D02*
D03*
Y590400D02*
D03*
Y603100D02*
D03*
Y641200D02*
D03*
X1038500Y526900D02*
D03*
Y539600D02*
D03*
Y552300D02*
D03*
Y565000D02*
D03*
Y577700D02*
D03*
Y590400D02*
D03*
Y603100D02*
D03*
Y615800D02*
D03*
Y628500D02*
D03*
Y641200D02*
D03*
Y501500D02*
D03*
X863500Y653900D02*
D03*
X1038500D02*
D03*
Y514200D02*
D03*
Y488800D02*
D03*
X863500D02*
D03*
Y539600D02*
D03*
Y615800D02*
D03*
Y526900D02*
D03*
Y628500D02*
D03*
X1006090Y1260810D02*
D03*
Y1248110D02*
D03*
Y1235410D02*
D03*
Y1222710D02*
D03*
Y1210010D02*
D03*
Y1197310D02*
D03*
Y1184610D02*
D03*
Y1171910D02*
D03*
Y1159210D02*
D03*
Y1146510D02*
D03*
Y1133810D02*
D03*
Y1121110D02*
D03*
Y1108410D02*
D03*
Y1095710D02*
D03*
X831090Y1260810D02*
D03*
Y1248110D02*
D03*
Y1235410D02*
D03*
Y1222710D02*
D03*
Y1210010D02*
D03*
Y1197310D02*
D03*
Y1184610D02*
D03*
Y1171910D02*
D03*
Y1159210D02*
D03*
Y1146510D02*
D03*
Y1133810D02*
D03*
Y1121110D02*
D03*
Y1108410D02*
D03*
Y1095710D02*
D03*
D49*
X597140Y747950D02*
D03*
X584440D02*
D03*
X571740D02*
D03*
X559040D02*
D03*
X546340D02*
D03*
X533640D02*
D03*
X520940D02*
D03*
X508240D02*
D03*
X495540D02*
D03*
X482840D02*
D03*
X470140D02*
D03*
X457440D02*
D03*
X444740D02*
D03*
X432040D02*
D03*
X597140Y922950D02*
D03*
X584440D02*
D03*
X571740D02*
D03*
X559040D02*
D03*
X546340D02*
D03*
X533640D02*
D03*
X520940D02*
D03*
X508240D02*
D03*
X495540D02*
D03*
X482840D02*
D03*
X470140D02*
D03*
X457440D02*
D03*
X444740D02*
D03*
X432040D02*
D03*
D50*
X609640Y841800D02*
D03*
Y854500D02*
D03*
Y867200D02*
D03*
Y879900D02*
D03*
Y892600D02*
D03*
Y829100D02*
D03*
Y816400D02*
D03*
Y803700D02*
D03*
Y791000D02*
D03*
Y778300D02*
D03*
D51*
X509240Y820450D02*
D03*
Y806450D02*
D03*
Y834450D02*
D03*
X495240Y820450D02*
D03*
Y806450D02*
D03*
Y834450D02*
D03*
X523240Y820450D02*
D03*
Y806450D02*
D03*
Y834450D02*
D03*
D52*
X618080Y601980D02*
D03*
X598580Y576580D02*
D03*
X598580Y601980D02*
D03*
X618080Y576580D02*
D03*
D53*
X651510Y506730D02*
D03*
X676910D02*
D03*
X440690Y694690D02*
D03*
Y669290D02*
D03*
Y581660D02*
D03*
Y607060D02*
D03*
X669290Y1250950D02*
D03*
X643890D02*
D03*
X618490D02*
D03*
X1038900Y887300D02*
D03*
Y912700D02*
D03*
Y938100D02*
D03*
Y963500D02*
D03*
Y836500D02*
D03*
Y861900D02*
D03*
X861100D02*
D03*
Y887300D02*
D03*
Y912700D02*
D03*
Y938100D02*
D03*
X1125220Y1169670D02*
D03*
Y1144270D02*
D03*
Y1118870D02*
D03*
Y1093470D02*
D03*
Y1068070D02*
D03*
Y1042670D02*
D03*
Y1017270D02*
D03*
Y991870D02*
D03*
Y966470D02*
D03*
X1122680Y763270D02*
D03*
Y737870D02*
D03*
Y864870D02*
D03*
Y839470D02*
D03*
Y814070D02*
D03*
Y788670D02*
D03*
X443052Y508757D02*
D03*
X557652D02*
D03*
X468452D02*
D03*
X583052D02*
D03*
X453390Y1170940D02*
D03*
X478790Y1250950D02*
D03*
X561340D02*
D03*
X726440D02*
D03*
X751840D02*
D03*
X453390D02*
D03*
X535940D02*
D03*
X453390Y1145540D02*
D03*
X777240Y1250950D02*
D03*
D54*
X1105400Y1260000D02*
D03*
X749300Y508000D02*
D03*
D55*
X1080000Y1260000D02*
D03*
X1054600D02*
D03*
X774700Y508000D02*
D03*
X800100D02*
D03*
D56*
X453390Y1010920D02*
D03*
Y1036320D02*
D03*
D57*
Y1061720D02*
D03*
D58*
X802640Y1228090D02*
D03*
X683260Y1181100D02*
D03*
X1074420Y1183640D02*
D03*
X647700Y673100D02*
D03*
D59*
X804210Y1171910D02*
D03*
X797560Y1150620D02*
D03*
X808990Y1121410D02*
D03*
X857250Y1129030D02*
D03*
X571500Y902970D02*
D03*
X558800Y887730D02*
D03*
X850900Y1146810D02*
D03*
X793750Y1089660D02*
D03*
X689200Y1105310D02*
D03*
X984250Y1235710D02*
D03*
X976630Y1182370D02*
D03*
X1028700Y1075690D02*
D03*
X966470Y1115060D02*
D03*
X875030Y675640D02*
D03*
X904240Y615950D02*
D03*
X966470Y1134110D02*
D03*
X1043940Y1242060D02*
D03*
X845820Y628650D02*
D03*
X577850Y601980D02*
D03*
X596900Y726440D02*
D03*
M02*
