G04*
G04 #@! TF.GenerationSoftware,Altium Limited,Altium Designer,24.1.2 (44)*
G04*
G04 Layer_Physical_Order=1*
G04 Layer_Color=255*
%FSLAX44Y44*%
%MOMM*%
G71*
G04*
G04 #@! TF.SameCoordinates,8946270A-CDF1-4B79-A6C7-2A95EA918DB0*
G04*
G04*
G04 #@! TF.FilePolarity,Positive*
G04*
G01*
G75*
%ADD11C,0.3000*%
%ADD23R,1.2000X1.4000*%
%ADD24R,1.1600X1.4700*%
%ADD25R,0.8000X1.2000*%
%ADD26R,1.4700X1.1600*%
%ADD27R,1.4000X1.2000*%
%ADD28R,1.3000X1.2000*%
%ADD29R,1.2000X0.8000*%
G04:AMPARAMS|DCode=30|XSize=0.6mm|YSize=1.35mm|CornerRadius=0.045mm|HoleSize=0mm|Usage=FLASHONLY|Rotation=270.000|XOffset=0mm|YOffset=0mm|HoleType=Round|Shape=RoundedRectangle|*
%AMROUNDEDRECTD30*
21,1,0.6000,1.2600,0,0,270.0*
21,1,0.5100,1.3500,0,0,270.0*
1,1,0.0900,-0.6300,-0.2550*
1,1,0.0900,-0.6300,0.2550*
1,1,0.0900,0.6300,0.2550*
1,1,0.0900,0.6300,-0.2550*
%
%ADD30ROUNDEDRECTD30*%
%ADD31R,0.9000X0.9000*%
%ADD32R,0.9000X1.5000*%
%ADD33R,1.5000X0.9000*%
%ADD34R,0.9000X1.5000*%
%ADD35R,1.5000X0.9000*%
%ADD36R,0.9000X0.9000*%
%ADD37R,1.2000X1.3000*%
%ADD60C,0.5000*%
%ADD61C,1.0000*%
%ADD62C,0.3500*%
%ADD63C,1.6000*%
G04:AMPARAMS|DCode=64|XSize=1.8mm|YSize=1.6mm|CornerRadius=0.4mm|HoleSize=0mm|Usage=FLASHONLY|Rotation=270.000|XOffset=0mm|YOffset=0mm|HoleType=Round|Shape=RoundedRectangle|*
%AMROUNDEDRECTD64*
21,1,1.8000,0.8000,0,0,270.0*
21,1,1.0000,1.6000,0,0,270.0*
1,1,0.8000,-0.4000,-0.5000*
1,1,0.8000,-0.4000,0.5000*
1,1,0.8000,0.4000,0.5000*
1,1,0.8000,0.4000,-0.5000*
%
%ADD64ROUNDEDRECTD64*%
%ADD65O,1.6000X1.8000*%
%ADD66O,1.8000X1.6000*%
G04:AMPARAMS|DCode=67|XSize=1.8mm|YSize=1.6mm|CornerRadius=0.4mm|HoleSize=0mm|Usage=FLASHONLY|Rotation=0.000|XOffset=0mm|YOffset=0mm|HoleType=Round|Shape=RoundedRectangle|*
%AMROUNDEDRECTD67*
21,1,1.8000,0.8000,0,0,0.0*
21,1,1.0000,1.6000,0,0,0.0*
1,1,0.8000,0.5000,-0.4000*
1,1,0.8000,-0.5000,-0.4000*
1,1,0.8000,-0.5000,0.4000*
1,1,0.8000,0.5000,0.4000*
%
%ADD67ROUNDEDRECTD67*%
%ADD68C,1.1000*%
%ADD69C,0.8000*%
D11*
X1006090Y1146510D02*
X1079902D01*
X1087120Y1156970D02*
X1125220Y1118870D01*
X1008330Y1156970D02*
X1087120D01*
X1079902Y1146510D02*
X1120042Y1106370D01*
X1006090Y1159210D02*
X1008330Y1156970D01*
X617786Y602274D02*
Y625448D01*
Y602274D02*
X618080Y601980D01*
X554990Y1029970D02*
X561200Y1036180D01*
Y1051560D01*
X547370Y1029970D02*
X554990D01*
X661376Y1124516D02*
X661670Y1124810D01*
X636932Y1124516D02*
X661376D01*
X809960Y1235410D02*
X831090D01*
X802640Y1228090D02*
X809960Y1235410D01*
X751840Y1250950D02*
X805480Y1197310D01*
X831090D01*
X683260Y1178935D02*
Y1181100D01*
Y1178935D02*
X688000Y1174195D01*
Y1173820D02*
Y1174195D01*
Y1173820D02*
X690170Y1171650D01*
X778510D01*
X643890Y1250950D02*
X710230Y1184610D01*
X831090D01*
X579824Y1169062D02*
Y1193374D01*
X797560Y1150620D02*
X806150Y1159210D01*
X831090D01*
X803910Y1172210D02*
X804210Y1171910D01*
X831090D01*
X811530Y1121410D02*
X811830Y1121110D01*
X831090D01*
X542290Y1012286D02*
Y1024890D01*
Y1012286D02*
X542994Y1011582D01*
X542290Y1024890D02*
X547370Y1029970D01*
X542994Y997516D02*
Y1011582D01*
X555941Y984569D02*
X591260D01*
X542994Y997516D02*
X555941Y984569D01*
X636932Y1072446D02*
X637226Y1072740D01*
X660400D01*
X855897Y1129030D02*
X857250D01*
X831090Y1133810D02*
X851117D01*
X855897Y1129030D01*
X571500Y902970D02*
Y922710D01*
X571740Y922950D01*
X558800Y887730D02*
Y922710D01*
X559040Y922950D01*
X831090Y1146510D02*
X850600D01*
X850900Y1146810D01*
X793750Y1089660D02*
X799800Y1095710D01*
X831090D01*
X661670Y1105310D02*
X689200D01*
X689610Y1104900D01*
X778510Y1169650D02*
Y1171650D01*
X731520Y1150340D02*
X759200D01*
X778510Y1169650D01*
X708660Y1151840D02*
X710160Y1150340D01*
X731520D01*
X518720Y662793D02*
X518864Y662649D01*
X518720Y662793D02*
Y698500D01*
X1030940Y1171910D02*
X1056640Y1197610D01*
X1097280D01*
X1006090Y1210010D02*
X1056410D01*
X1006090Y1171910D02*
X1030940D01*
X984250Y1235710D02*
X1005790D01*
X1006090Y1235410D01*
X991570Y1197310D02*
X1006090D01*
X976630Y1182370D02*
X991570Y1197310D01*
X1097280Y1197610D02*
X1125220Y1169670D01*
X1021180Y1083210D02*
X1028700Y1075690D01*
X975740Y1083210D02*
X1021180D01*
X1141730Y1030262D02*
Y1094638D01*
X1128738Y1017270D02*
X1141730Y1030262D01*
X1129998Y1106370D02*
X1141730Y1094638D01*
X1125220Y1017270D02*
X1128738D01*
X1101090Y1066800D02*
Y1092200D01*
Y1066800D02*
X1125220Y1042670D01*
X1070610Y1122680D02*
X1101090Y1092200D01*
X1043940Y1122680D02*
X1070610D01*
X1006090Y1108410D02*
X1029670D01*
X1043940Y1122680D01*
X1120042Y1106370D02*
X1129998D01*
X966470Y1115060D02*
X972520Y1121110D01*
X1006090D01*
X863500Y615800D02*
X863650Y615950D01*
X904240D01*
X863350D02*
X863500Y615800D01*
X1005790Y1134110D02*
X1006090Y1133810D01*
X966470Y1134110D02*
X1005790D01*
X1049160Y1074420D02*
Y1092170D01*
X1006090Y1095710D02*
X1052700D01*
X1049160Y1092170D02*
X1052700Y1095710D01*
X1057910Y1100920D01*
Y1102920D01*
X1006090Y1248110D02*
X1037890D01*
X1043940Y1242060D01*
X1043710Y1222710D02*
X1080000Y1259000D01*
X1056410Y1210010D02*
X1105400Y1259000D01*
X863350Y628650D02*
X863500Y628500D01*
X845820Y628650D02*
X863350D01*
X1048454Y1073714D02*
X1049160Y1074420D01*
X1048454Y1051807D02*
Y1073714D01*
X1006090Y1222710D02*
X1043710D01*
X1080000Y1259000D02*
Y1260000D01*
X1105400Y1259000D02*
Y1260000D01*
X1096150Y553720D02*
Y555270D01*
X1080770Y570650D02*
X1096150Y555270D01*
X1096010Y656570D02*
Y658570D01*
X1080770Y641330D02*
X1096010Y656570D01*
X1080770Y570650D02*
Y641330D01*
X1083202Y514200D02*
X1091214Y522212D01*
X1038500Y514200D02*
X1083202D01*
X1096714Y526712D02*
Y527712D01*
X1092214Y522212D02*
X1096714Y526712D01*
X1091214Y522212D02*
X1092214D01*
X1096150Y528276D02*
X1096714Y527712D01*
X1096150Y528276D02*
Y553720D01*
X579824Y1193374D02*
X580530Y1194080D01*
X536160Y1238450D02*
X580530Y1194080D01*
X536160Y1238450D02*
Y1250730D01*
X535940Y1250950D02*
X536160Y1250730D01*
X453390Y1250950D02*
X456350D01*
X513220Y1192530D02*
Y1194080D01*
X456350Y1250950D02*
X513220Y1194080D01*
X512514Y1191824D02*
X513220Y1192530D01*
X512514Y1169062D02*
Y1191824D01*
X476858Y1122072D02*
X511244D01*
X453390Y1145540D02*
X476858Y1122072D01*
X511244Y1099256D02*
Y1122072D01*
Y1099256D02*
X511950Y1098550D01*
X591260Y967740D02*
Y984569D01*
X810950Y660530D02*
X851216Y700796D01*
X868114D01*
X806450Y656030D02*
Y658030D01*
X808950Y660530D01*
X810950D01*
X454390Y1061720D02*
X482840Y1033270D01*
Y922950D02*
Y1033270D01*
X453390Y1061720D02*
X454390D01*
Y1036320D02*
X470140Y1020570D01*
X453390Y1036320D02*
X454390D01*
X470140Y922950D02*
Y1020570D01*
X597140Y922950D02*
Y961860D01*
X591260Y967740D02*
X593260D01*
X595760Y965240D01*
Y963240D02*
Y965240D01*
Y963240D02*
X597140Y961860D01*
X1028700Y660700D02*
Y700180D01*
Y660700D02*
X1035500Y653900D01*
X1038500D01*
X1028406Y719386D02*
X1028700Y719680D01*
X1005232Y719386D02*
X1028406D01*
X962974Y700180D02*
X963268Y700474D01*
X939800Y700180D02*
X962974D01*
X868114Y700796D02*
X868680Y701362D01*
Y723409D01*
X808850Y975360D02*
Y986303D01*
X756920Y988060D02*
X807093D01*
X808850Y986303D01*
X751840Y982980D02*
X756920Y988060D01*
X751840Y957160D02*
Y982980D01*
X741490Y961160D02*
X747840D01*
X751840Y957160D01*
Y826350D02*
Y957160D01*
X739990Y962660D02*
X741490Y961160D01*
X739990Y723900D02*
X749300D01*
X751840Y726440D01*
Y826350D01*
X747840Y830350D02*
X751840Y826350D01*
X739990Y831850D02*
X741490Y830350D01*
X747840D01*
X518864Y640742D02*
Y662649D01*
X460440Y739286D02*
X501226Y698500D01*
X518720D01*
X457440Y747950D02*
X460440Y744950D01*
Y739286D02*
Y744950D01*
X596900Y726440D02*
X597140Y726680D01*
Y747950D01*
X580390Y601980D02*
X598580D01*
X580390Y601980D02*
X580390Y601980D01*
X675500Y576580D02*
Y598310D01*
X633703Y640107D02*
X675500Y598310D01*
X600737Y640107D02*
X633703D01*
X598786Y638156D02*
X600737Y640107D01*
X598786Y625448D02*
Y638156D01*
X806450Y656030D02*
X861370D01*
X863500Y653900D01*
X779900Y539600D02*
X863500D01*
X749300Y509000D02*
X779900Y539600D01*
X749300Y508000D02*
Y509000D01*
X792600Y526900D02*
X863500D01*
X774700Y509000D02*
X792600Y526900D01*
X774700Y508000D02*
Y509000D01*
X860500Y523900D02*
X863500Y526900D01*
D23*
X598824Y1169062D02*
D03*
X579824D02*
D03*
X531514D02*
D03*
X512514D02*
D03*
X511244Y1122072D02*
D03*
X530244D02*
D03*
X561994Y1011582D02*
D03*
X542994D02*
D03*
X1067454Y1051807D02*
D03*
X1048454D02*
D03*
X711854Y950622D02*
D03*
X692854D02*
D03*
X868114Y700796D02*
D03*
X887114D02*
D03*
X710584Y711862D02*
D03*
X691584D02*
D03*
X598786Y625448D02*
D03*
X617786D02*
D03*
X558146Y577188D02*
D03*
X577146D02*
D03*
X537864Y640742D02*
D03*
X518864D02*
D03*
X710584Y821082D02*
D03*
X691584D02*
D03*
X1096714Y527712D02*
D03*
X1115714D02*
D03*
D24*
X580530Y1192530D02*
D03*
X598030D02*
D03*
X513220D02*
D03*
X530720D02*
D03*
X529450Y1098550D02*
D03*
X511950D02*
D03*
X543700Y1051560D02*
D03*
X561200D02*
D03*
X1066660Y1074420D02*
D03*
X1049160D02*
D03*
X754240Y1041400D02*
D03*
X736740D02*
D03*
X754240Y1064260D02*
D03*
X736740D02*
D03*
X711060Y976630D02*
D03*
X693560D02*
D03*
X808850Y975360D02*
D03*
X791350D02*
D03*
X808850Y947420D02*
D03*
X791350D02*
D03*
X808850Y847090D02*
D03*
X791350D02*
D03*
X808850Y816610D02*
D03*
X791350D02*
D03*
X709790Y844550D02*
D03*
X692290D02*
D03*
X868680Y723409D02*
D03*
X886180D02*
D03*
X808850Y735330D02*
D03*
X791350D02*
D03*
X808850Y709930D02*
D03*
X791350D02*
D03*
X709790Y734475D02*
D03*
X692290D02*
D03*
X741820Y619760D02*
D03*
X759320D02*
D03*
X741820Y595630D02*
D03*
X759320D02*
D03*
X658000Y576580D02*
D03*
X675500D02*
D03*
X519570Y663355D02*
D03*
X537070D02*
D03*
X1096150Y553720D02*
D03*
X1113650D02*
D03*
D25*
X778510Y1171650D02*
D03*
Y1101650D02*
D03*
X1057910Y1172920D02*
D03*
Y1102920D02*
D03*
X806450Y586030D02*
D03*
Y656030D02*
D03*
X1096010Y588570D02*
D03*
Y658570D02*
D03*
D26*
X731520Y1150340D02*
D03*
Y1132840D02*
D03*
X651381Y708520D02*
D03*
Y691020D02*
D03*
X627380Y708520D02*
D03*
Y691020D02*
D03*
D27*
X708660Y1132840D02*
D03*
Y1151840D02*
D03*
X636932Y1105516D02*
D03*
Y1124516D02*
D03*
Y1053446D02*
D03*
Y1072446D02*
D03*
X1005232Y700386D02*
D03*
Y719386D02*
D03*
X963268Y719474D02*
D03*
Y700474D02*
D03*
D28*
X661670Y1105310D02*
D03*
Y1124810D02*
D03*
X660400Y1053240D02*
D03*
Y1072740D02*
D03*
X1028700Y700180D02*
D03*
Y719680D02*
D03*
X939800Y700180D02*
D03*
Y719680D02*
D03*
D29*
X591260Y967740D02*
D03*
X521260D02*
D03*
X518720Y698500D02*
D03*
X588720D02*
D03*
D30*
X763690Y972160D02*
D03*
Y953160D02*
D03*
X739990D02*
D03*
Y962660D02*
D03*
Y972160D02*
D03*
X763690Y841350D02*
D03*
Y822350D02*
D03*
X739990D02*
D03*
Y831850D02*
D03*
Y841350D02*
D03*
X763690Y733400D02*
D03*
Y714400D02*
D03*
X739990D02*
D03*
Y723900D02*
D03*
Y733400D02*
D03*
D31*
X952000Y580000D02*
D03*
X980000D02*
D03*
X966000D02*
D03*
X952000Y552000D02*
D03*
X980000D02*
D03*
X966000D02*
D03*
X952000Y566000D02*
D03*
X980000D02*
D03*
X966000D02*
D03*
X917590Y1169610D02*
D03*
X889590D02*
D03*
X903590D02*
D03*
X917590Y1197610D02*
D03*
X889590D02*
D03*
X903590D02*
D03*
X917590Y1183610D02*
D03*
X889590D02*
D03*
X903590D02*
D03*
D32*
X995450Y666400D02*
D03*
X982750D02*
D03*
X970050D02*
D03*
X957350D02*
D03*
X893850D02*
D03*
X906550D02*
D03*
X919250D02*
D03*
X931950D02*
D03*
X944650D02*
D03*
X1008150D02*
D03*
X861440Y1083210D02*
D03*
X874140D02*
D03*
X886840D02*
D03*
X899540D02*
D03*
X912240D02*
D03*
X975740D02*
D03*
X963040D02*
D03*
X950340D02*
D03*
X937640D02*
D03*
X924940D02*
D03*
D33*
X863500Y501500D02*
D03*
Y514200D02*
D03*
Y552300D02*
D03*
Y565000D02*
D03*
Y577700D02*
D03*
Y590400D02*
D03*
Y603100D02*
D03*
Y641200D02*
D03*
X1038500Y526900D02*
D03*
Y539600D02*
D03*
Y552300D02*
D03*
Y565000D02*
D03*
Y577700D02*
D03*
Y590400D02*
D03*
Y603100D02*
D03*
Y615800D02*
D03*
Y628500D02*
D03*
Y641200D02*
D03*
Y501500D02*
D03*
X863500Y653900D02*
D03*
X1038500D02*
D03*
Y514200D02*
D03*
Y488800D02*
D03*
X863500D02*
D03*
Y539600D02*
D03*
Y615800D02*
D03*
Y526900D02*
D03*
Y628500D02*
D03*
X1006090Y1260810D02*
D03*
Y1248110D02*
D03*
Y1235410D02*
D03*
Y1222710D02*
D03*
Y1210010D02*
D03*
Y1197310D02*
D03*
Y1184610D02*
D03*
Y1171910D02*
D03*
Y1159210D02*
D03*
Y1146510D02*
D03*
Y1133810D02*
D03*
Y1121110D02*
D03*
Y1108410D02*
D03*
Y1095710D02*
D03*
X831090Y1260810D02*
D03*
Y1248110D02*
D03*
Y1235410D02*
D03*
Y1222710D02*
D03*
Y1210010D02*
D03*
Y1197310D02*
D03*
Y1184610D02*
D03*
Y1171910D02*
D03*
Y1159210D02*
D03*
Y1146510D02*
D03*
Y1133810D02*
D03*
Y1121110D02*
D03*
Y1108410D02*
D03*
Y1095710D02*
D03*
D34*
X597140Y747950D02*
D03*
X584440D02*
D03*
X571740D02*
D03*
X559040D02*
D03*
X546340D02*
D03*
X533640D02*
D03*
X520940D02*
D03*
X508240D02*
D03*
X495540D02*
D03*
X482840D02*
D03*
X470140D02*
D03*
X457440D02*
D03*
X444740D02*
D03*
X432040D02*
D03*
X597140Y922950D02*
D03*
X584440D02*
D03*
X571740D02*
D03*
X559040D02*
D03*
X546340D02*
D03*
X533640D02*
D03*
X520940D02*
D03*
X508240D02*
D03*
X495540D02*
D03*
X482840D02*
D03*
X470140D02*
D03*
X457440D02*
D03*
X444740D02*
D03*
X432040D02*
D03*
D35*
X609640Y841800D02*
D03*
Y854500D02*
D03*
Y867200D02*
D03*
Y879900D02*
D03*
Y892600D02*
D03*
Y829100D02*
D03*
Y816400D02*
D03*
Y803700D02*
D03*
Y791000D02*
D03*
Y778300D02*
D03*
D36*
X509240Y820450D02*
D03*
Y806450D02*
D03*
Y834450D02*
D03*
X495240Y820450D02*
D03*
Y806450D02*
D03*
Y834450D02*
D03*
X523240Y820450D02*
D03*
Y806450D02*
D03*
Y834450D02*
D03*
D37*
X618080Y601980D02*
D03*
X598580Y576580D02*
D03*
X598580Y601980D02*
D03*
X618080Y576580D02*
D03*
D60*
X627380Y691020D02*
X651381D01*
X432040Y757028D02*
Y783590D01*
X597272D01*
X599862Y781000D01*
X602411Y780300D02*
X607640D01*
X599862Y781000D02*
X601711D01*
X432040Y783590D02*
Y922950D01*
X607640Y780300D02*
X609640Y778300D01*
X601711Y781000D02*
X602411Y780300D01*
X609640Y778300D02*
X612640D01*
X519640Y1025950D02*
X521260Y1024330D01*
X432040Y749950D02*
Y757028D01*
Y747950D02*
Y749950D01*
X450850Y1094740D02*
X519640Y1025950D01*
X495300Y628650D02*
X503555Y620395D01*
X445610Y732950D02*
X495300Y683260D01*
Y628650D02*
Y683260D01*
X503555Y620395D02*
X531495D01*
X537210Y626110D01*
Y640088D01*
X445610Y732950D02*
Y747080D01*
X444740Y747950D02*
X445610Y747080D01*
X571922Y1098550D02*
X578888Y1105516D01*
X636932D01*
X736740Y1008240D02*
Y1039850D01*
X651510Y739430D02*
X656590Y744510D01*
Y989330D01*
X694690Y1027430D01*
X722770D02*
X731890Y1036550D01*
X694690Y1027430D02*
X722770D01*
X736740Y1039850D02*
Y1041400D01*
X733440Y1036550D02*
X736740Y1039850D01*
X731890Y1036550D02*
X733440D01*
X698969Y996149D02*
X703111D01*
X693560Y990740D02*
X698969Y996149D01*
X703111D02*
X703580Y995680D01*
X693207Y976277D02*
X693560Y976630D01*
Y990740D01*
X875030Y1112520D02*
Y1260810D01*
X861440Y1098930D02*
X875030Y1112520D01*
X543700Y1053110D02*
X544970Y1051840D01*
X749320Y1132840D02*
X778510Y1103650D01*
X731520Y1132840D02*
X749320D01*
X778510Y1101650D02*
Y1103650D01*
X530244Y1122072D02*
X578512D01*
X601980Y1145540D01*
X529450Y1098550D02*
X571922D01*
X682915Y1132840D02*
X708660D01*
X670215Y1145540D02*
X682915Y1132840D01*
X601980Y1145540D02*
X670215D01*
X521260Y1027570D02*
X543700Y1050010D01*
X521260Y1024330D02*
Y1027570D01*
X543700Y1050010D02*
Y1051560D01*
X540400Y1056410D02*
X543700Y1053110D01*
X561862Y1073150D02*
X589280D01*
X543700Y1051560D02*
Y1053110D01*
X549900Y1059310D01*
Y1061188D01*
X561862Y1073150D01*
X589280D02*
X608984Y1053446D01*
X636932D01*
X635662Y1011582D02*
X660400Y1036320D01*
Y1053240D01*
X561994Y1011582D02*
X635662D01*
X529450Y1065810D02*
Y1098550D01*
X538850Y1056410D02*
X540400D01*
X529450Y1065810D02*
X538850Y1056410D01*
X677320Y1053240D02*
X708660Y1084580D01*
X660400Y1053240D02*
X677320D01*
X709209Y1129889D02*
X711611D01*
X708660Y1084580D02*
Y1129340D01*
X861440Y1080210D02*
Y1098930D01*
X875030Y1260810D02*
X1006090D01*
X831090D02*
X875030D01*
X778510Y1073539D02*
X786519Y1065530D01*
X843760D01*
X778510Y1073539D02*
Y1101650D01*
X859440Y1078210D02*
X861440Y1080210D01*
X856440Y1078210D02*
X859440D01*
X843760Y1065530D02*
X856440Y1078210D01*
X754240Y1064260D02*
Y1079640D01*
X711611Y1122269D02*
X754240Y1079640D01*
X711611Y1122269D02*
Y1129889D01*
X754240Y1041400D02*
Y1064260D01*
X434040Y749950D02*
Y757028D01*
X432040Y747950D02*
X434040Y749950D01*
X778660Y1249530D02*
X829670D01*
X777240Y1250950D02*
X778660Y1249530D01*
X829670D02*
X831090Y1248110D01*
X1057910Y1174920D02*
X1066481Y1183491D01*
X1074271D01*
X1074420Y1183640D01*
X1057910Y1172920D02*
Y1174920D01*
X618490Y1250950D02*
X655320Y1287780D01*
X689610D01*
X726440Y1250950D01*
X728545Y1253055D02*
Y1258135D01*
X756920Y1286510D01*
X726440Y1250950D02*
X728545Y1253055D01*
X756920Y1286510D02*
X802390D01*
X828090Y1260810D01*
X831090D01*
X1151890Y990163D02*
Y1117600D01*
X1128197Y966470D02*
X1151890Y990163D01*
X1125220Y966470D02*
X1128197D01*
X1125220Y1144270D02*
X1151890Y1117600D01*
X1066660Y1073061D02*
X1069960Y1069761D01*
X1066660Y1073061D02*
Y1074420D01*
X1069960Y1069761D02*
X1079960D01*
X1087120Y1062601D01*
Y1029970D02*
Y1062601D01*
X1002030Y861060D02*
X1038060D01*
X1038900Y861900D01*
X924990Y938100D02*
X1002030Y861060D01*
X861100Y938100D02*
X924990D01*
X675500Y576580D02*
X675570Y576510D01*
X875030Y675640D02*
X887114Y687724D01*
Y700796D01*
X815340Y1003300D02*
X861100Y957540D01*
Y938100D02*
Y957540D01*
X1087120Y1029970D02*
X1125220Y991870D01*
X1067454Y1024236D02*
X1125220Y966470D01*
X1067454Y1024236D02*
Y1051807D01*
X1052830Y863600D02*
X1070610Y881380D01*
X1038900Y861900D02*
X1040600Y863600D01*
X1052830D01*
X1070610Y881380D02*
Y911860D01*
X1125220Y966470D01*
X1006495Y1260405D02*
X1054195D01*
X1054600Y1260000D01*
X1006090Y1260810D02*
X1006495Y1260405D01*
X1033464Y788670D02*
X1122680D01*
X964268Y719474D02*
X1033464Y788670D01*
X1122680D02*
X1145540Y765810D01*
X736740Y1041400D02*
Y1064260D01*
X1113650Y555270D02*
X1145540Y587160D01*
Y765810D01*
X1113650Y555270D02*
Y568930D01*
X963268Y719474D02*
X964268D01*
X1096010Y586570D02*
Y588570D01*
Y586570D02*
X1113650Y568930D01*
X681601Y488950D02*
X706120D01*
X669290D02*
X681601D01*
X961390Y474980D02*
X987910Y501500D01*
X1038500D01*
X720090Y474980D02*
X961390D01*
X706120Y488950D02*
X720090Y474980D01*
X1124021Y552379D02*
X1136650Y539750D01*
Y502920D02*
Y539750D01*
X1114991Y552379D02*
X1124021D01*
X1113650Y553720D02*
X1114991Y552379D01*
X1122530Y488800D02*
X1136650Y502920D01*
X1115714Y513734D02*
Y527712D01*
X1103480Y501500D02*
X1115714Y513734D01*
X1038500Y501500D02*
X1103480D01*
X1038500Y488800D02*
X1122530D01*
X422910Y1096010D02*
Y1140460D01*
Y1029089D02*
Y1096010D01*
X424180Y1094740D02*
X450850D01*
X422910Y1096010D02*
X424180Y1094740D01*
X521260Y967740D02*
Y1024330D01*
X422910Y1140460D02*
X453390Y1170940D01*
X422910Y1029089D02*
X438974Y1013025D01*
X451285D02*
X453390Y1010920D01*
X438974Y1013025D02*
X451285D01*
X433070Y1191260D02*
X453390Y1170940D01*
X433070Y1191260D02*
Y1261110D01*
X436410Y1264450D01*
X465290D02*
X478790Y1250950D01*
X436410Y1264450D02*
X465290D01*
X547840D02*
X561340Y1250950D01*
X492290Y1264450D02*
X547840D01*
X478790Y1250950D02*
X492290Y1264450D01*
X561340Y1250950D02*
X618490D01*
X561340D02*
X598030Y1214260D01*
Y1192530D02*
Y1214260D01*
X586740Y1145540D02*
X598691Y1157491D01*
Y1168929D01*
X531514Y1168062D02*
X535014Y1164562D01*
X536014D01*
X555036Y1145540D01*
X586740D01*
X531514Y1168062D02*
Y1169062D01*
X478790Y1250950D02*
X527420Y1202320D01*
Y1195830D02*
Y1202320D01*
Y1195830D02*
X530720Y1192530D01*
X530879Y1122707D02*
Y1168427D01*
X530244Y1122072D02*
X530879Y1122707D01*
X431800Y923190D02*
Y960120D01*
Y923190D02*
X432040Y922950D01*
X453390Y981710D02*
Y1010920D01*
X431800Y960120D02*
X453390Y981710D01*
X962087Y720655D02*
X963268Y719474D01*
X962087Y720655D02*
Y732974D01*
X957191Y737870D02*
X962087Y732974D01*
X900641Y737870D02*
X957191D01*
X886180Y724959D02*
X889480Y728259D01*
X886180Y723409D02*
Y724959D01*
X889480Y728259D02*
X891030D01*
X900641Y737870D01*
X975144Y715974D02*
X990732Y700386D01*
X966768Y715974D02*
X975144D01*
X990732Y700386D02*
X1005232D01*
X963268Y719474D02*
X966768Y715974D01*
X1005232Y684602D02*
Y700386D01*
Y684602D02*
X1008150Y681684D01*
Y666400D02*
Y681684D01*
X924399Y719680D02*
X939800D01*
X887114Y700796D02*
X905515D01*
X924399Y719680D01*
X792340Y1003300D02*
X815340D01*
X754240Y1039850D02*
X757540Y1036550D01*
X759090D01*
X754240Y1039850D02*
Y1041400D01*
X759090Y1036550D02*
X792340Y1003300D01*
X736740Y1008240D02*
X756920Y988060D01*
X808850Y735330D02*
Y816610D01*
Y847090D02*
Y947420D01*
X791350Y847090D02*
Y947420D01*
X763690Y972160D02*
X764190Y972660D01*
X788650D01*
X791350Y975360D01*
X759460Y619900D02*
Y640080D01*
X759320Y619760D02*
X759460Y619900D01*
Y640080D02*
X808850Y689470D01*
Y709930D01*
X647700Y673100D02*
X651381Y676781D01*
Y691020D01*
X692572Y858942D02*
X698500Y864870D01*
X692572Y858942D02*
Y950340D01*
Y844832D02*
Y858942D01*
X692290Y844550D02*
X692572Y844832D01*
Y950340D02*
X692854Y950622D01*
X691584Y821082D02*
X691937Y820729D01*
Y734828D02*
Y820729D01*
Y734828D02*
X692290Y734475D01*
X651381Y708520D02*
X651510Y708649D01*
Y739430D01*
X612640Y778300D02*
X651510Y739430D01*
X537210Y640088D02*
X537864Y640742D01*
X554558D01*
X604836Y691020D01*
X627380D01*
X570665Y698500D02*
X588720D01*
X537070Y664905D02*
X570665Y698500D01*
X537070Y663355D02*
Y664905D01*
X590720Y698500D02*
X600740Y708520D01*
X588720Y698500D02*
X590720D01*
X600740Y708520D02*
X627380D01*
X579728Y625448D02*
X598786D01*
X558146Y603866D02*
X579728Y625448D01*
X558146Y577188D02*
Y603866D01*
Y539134D02*
X584200Y513080D01*
X558146Y539134D02*
Y577188D01*
X759320Y564305D02*
Y595630D01*
X726440Y531425D02*
X759320Y564305D01*
X726440Y501650D02*
Y531425D01*
Y501650D02*
X741680Y486410D01*
X779510D01*
X800100Y507000D01*
Y508000D01*
Y507000D02*
X818300Y488800D01*
X863500D01*
X791350Y708380D02*
Y709930D01*
X701040Y530860D02*
Y618070D01*
X791350Y708380D01*
X798850Y595630D02*
X806450Y588030D01*
X759320Y595630D02*
X798850D01*
X806450Y586030D02*
Y588030D01*
X759320Y595630D02*
Y619760D01*
X741820Y595630D02*
Y619760D01*
X726440Y595630D02*
X741820D01*
X713740Y582930D02*
X726440Y595630D01*
X713740Y521089D02*
Y582930D01*
X681601Y488950D02*
X713740Y521089D01*
X676910Y506730D02*
X701040Y530860D01*
X651510Y506730D02*
X669290Y488950D01*
X627380Y708520D02*
X651381D01*
X737388Y972660D02*
X737888Y972160D01*
X739990D01*
X737388Y972660D02*
Y979652D01*
X721360Y995680D02*
X737388Y979652D01*
X703580Y995680D02*
X721360D01*
X729750Y963160D02*
X739490D01*
X739990Y962660D01*
X721130Y971780D02*
X729750Y963160D01*
X711060Y975080D02*
Y976630D01*
Y975080D02*
X714360Y971780D01*
X721130D01*
X693207Y950975D02*
Y976277D01*
X692854Y950622D02*
X693207Y950975D01*
X736240Y953160D02*
X739990D01*
X711854Y950622D02*
X733702D01*
X736240Y953160D01*
X808850Y947420D02*
Y975360D01*
X791350Y947420D02*
Y975360D01*
X773180Y847090D02*
X791350D01*
X767440Y841350D02*
X773180Y847090D01*
X763690Y841350D02*
X767440D01*
X808850Y816610D02*
Y847090D01*
Y709930D02*
Y735330D01*
X791350Y816610D02*
Y847090D01*
Y735330D02*
Y816610D01*
X763690Y733400D02*
X764190Y733900D01*
X789920D01*
X791350Y735330D01*
Y709930D02*
Y735330D01*
X736753Y841850D02*
X739490D01*
X739990Y841350D01*
X736753Y841850D02*
Y848207D01*
X720090Y864870D02*
X736753Y848207D01*
X698500Y864870D02*
X720090D01*
X727210Y832350D02*
X739490D01*
X739990Y831850D01*
X719860Y839700D02*
X727210Y832350D01*
X713090Y839700D02*
X719860D01*
X709790Y843000D02*
Y844550D01*
Y843000D02*
X713090Y839700D01*
X734972Y821082D02*
X736240Y822350D01*
X710584Y821082D02*
X734972D01*
X736240Y822350D02*
X739990D01*
X691937Y821435D02*
Y844197D01*
X691584Y821082D02*
X691937Y821435D01*
Y844197D02*
X692290Y844550D01*
X698500Y755650D02*
X717740D01*
X735740Y733900D02*
X736240Y733400D01*
X717740Y755650D02*
X735740Y737650D01*
Y733900D02*
Y737650D01*
X736240Y733400D02*
X739990D01*
X692290Y734475D02*
Y749440D01*
X698500Y755650D01*
X727710Y723900D02*
X739990D01*
X709790Y732925D02*
Y734475D01*
Y732925D02*
X713090Y729625D01*
X721985D01*
X727710Y723900D01*
X739490Y713900D02*
X739990Y714400D01*
X710584Y711862D02*
X712622Y713900D01*
X739490D01*
X691937Y712215D02*
Y734122D01*
X692290Y734475D01*
X691584Y711862D02*
X691937Y712215D01*
X577450Y576884D02*
X598276D01*
X577146Y577188D02*
X577450Y576884D01*
X598276D02*
X598580Y576580D01*
X658000Y576580D02*
X658000Y576580D01*
X618080Y576580D02*
X658000D01*
X618080Y576580D02*
X618080Y576580D01*
X651510Y509707D02*
X658000Y516197D01*
Y576580D01*
X651510Y506730D02*
Y509707D01*
X657860Y660400D02*
X691584Y694124D01*
Y711862D01*
X444200Y513080D02*
X591520Y660400D01*
X657860D01*
D61*
X468452Y508757D02*
Y511932D01*
Y505582D02*
Y508757D01*
X433970Y582808D02*
X439542D01*
X440690Y581660D01*
X415290Y601488D02*
X433970Y582808D01*
X415290Y601488D02*
Y643890D01*
X440690Y669290D01*
X442314Y607060D02*
X471170Y635916D01*
Y679450D01*
X440690Y607060D02*
X442314D01*
X457078Y693542D02*
X471170Y679450D01*
X440690Y694690D02*
X441838Y693542D01*
X457078D01*
D62*
X959000Y580000D02*
D03*
X973000D02*
D03*
X959000Y552000D02*
D03*
X973000D02*
D03*
X952000Y573000D02*
D03*
X980000D02*
D03*
X952000Y559000D02*
D03*
X980000D02*
D03*
X959000Y566000D02*
D03*
X973000D02*
D03*
X966000Y559000D02*
D03*
Y573000D02*
D03*
X516240Y820450D02*
D03*
X502240D02*
D03*
X509240Y813450D02*
D03*
Y827450D02*
D03*
X502240Y806450D02*
D03*
Y834450D02*
D03*
X516240Y806450D02*
D03*
Y834450D02*
D03*
X495240Y813450D02*
D03*
Y827450D02*
D03*
X523240Y813450D02*
D03*
Y827450D02*
D03*
X910590Y1169610D02*
D03*
X896590D02*
D03*
X910590Y1197610D02*
D03*
X896590D02*
D03*
X917590Y1176610D02*
D03*
X889590D02*
D03*
X917590Y1190610D02*
D03*
X889590D02*
D03*
X910590Y1183610D02*
D03*
X896590D02*
D03*
X903590Y1190610D02*
D03*
Y1176610D02*
D03*
D63*
X651510Y506730D02*
D03*
X676910D02*
D03*
X440690Y694690D02*
D03*
Y669290D02*
D03*
Y581660D02*
D03*
Y607060D02*
D03*
X669290Y1250950D02*
D03*
X643890D02*
D03*
X618490D02*
D03*
X1038900Y887300D02*
D03*
Y912700D02*
D03*
Y938100D02*
D03*
Y963500D02*
D03*
Y836500D02*
D03*
Y861900D02*
D03*
X861100D02*
D03*
Y887300D02*
D03*
Y912700D02*
D03*
Y938100D02*
D03*
X1125220Y1169670D02*
D03*
Y1144270D02*
D03*
Y1118870D02*
D03*
Y1093470D02*
D03*
Y1068070D02*
D03*
Y1042670D02*
D03*
Y1017270D02*
D03*
Y991870D02*
D03*
Y966470D02*
D03*
X1122680Y763270D02*
D03*
Y737870D02*
D03*
Y864870D02*
D03*
Y839470D02*
D03*
Y814070D02*
D03*
Y788670D02*
D03*
X443052Y508757D02*
D03*
X557652D02*
D03*
X468452D02*
D03*
X583052D02*
D03*
X453390Y1170940D02*
D03*
X478790Y1250950D02*
D03*
X561340D02*
D03*
X726440D02*
D03*
X751840D02*
D03*
X453390D02*
D03*
X535940D02*
D03*
X453390Y1145540D02*
D03*
X777240Y1250950D02*
D03*
D64*
X1105400Y1260000D02*
D03*
X749300Y508000D02*
D03*
D65*
X1080000Y1260000D02*
D03*
X1054600D02*
D03*
X774700Y508000D02*
D03*
X800100D02*
D03*
D66*
X453390Y1010920D02*
D03*
Y1036320D02*
D03*
D67*
Y1061720D02*
D03*
D68*
X802640Y1228090D02*
D03*
X683260Y1181100D02*
D03*
X1074420Y1183640D02*
D03*
X647700Y673100D02*
D03*
D69*
X804210Y1171910D02*
D03*
X797560Y1150620D02*
D03*
X808990Y1121410D02*
D03*
X857250Y1129030D02*
D03*
X571500Y902970D02*
D03*
X558800Y887730D02*
D03*
X850900Y1146810D02*
D03*
X793750Y1089660D02*
D03*
X689200Y1105310D02*
D03*
X984250Y1235710D02*
D03*
X976630Y1182370D02*
D03*
X1028700Y1075690D02*
D03*
X966470Y1115060D02*
D03*
X875030Y675640D02*
D03*
X904240Y615950D02*
D03*
X966470Y1134110D02*
D03*
X1043940Y1242060D02*
D03*
X845820Y628650D02*
D03*
X577850Y601980D02*
D03*
X596900Y726440D02*
D03*
M02*
